<svg width="18" height="24" viewBox="0 0 18 24" fill="none" xmlns="http://www.w3.org/2000/svg">
<path d="M9 0C13.9706 0 18 3.75414 18 8.38477C17.9999 10.5422 17.1255 12.5093 15.6885 13.9951L16.9229 21.5322C17.2345 23.436 14.898 24.7239 13.2568 23.5527L9.46289 20.8457C9.29813 20.7281 9.06906 20.7281 8.9043 20.8457L5.11035 23.5527C3.46925 24.7236 1.13272 23.4359 1.44434 21.5322L2.62793 14.3057C1.00407 12.789 7.95516e-05 10.6961 0 8.38477C0 3.75419 4.02942 7.64487e-05 9 0ZM14.0488 15.3271C12.6092 16.2375 10.8711 16.7686 9 16.7686C7.27165 16.7685 5.65707 16.3151 4.28613 15.5283L3.26074 21.79C3.19838 22.1708 3.6659 22.4286 3.99414 22.1943L7.78809 19.4873C8.6119 18.8995 9.7563 18.8994 10.5801 19.4873L14.374 22.1943C14.7023 22.4285 15.1698 22.1708 15.1074 21.79L14.0488 15.3271ZM9 1.71094C5.04384 1.71101 1.83691 4.69921 1.83691 8.38477C1.83707 12.0702 5.04394 15.0575 9 15.0576C12.9561 15.0576 16.1629 12.0702 16.1631 8.38477C16.1631 4.69916 12.9562 1.71094 9 1.71094ZM11.9873 5.2793C12.2986 4.89808 12.8751 4.82956 13.2754 5.12598C13.6757 5.4225 13.7478 5.97127 13.4365 6.35254L9.15137 11.6006C8.99022 11.7978 8.74817 11.9203 8.48633 11.9365C8.22428 11.9527 7.96689 11.8605 7.78027 11.6846L4.71973 8.79883C4.35938 8.45908 4.3563 7.90577 4.71289 7.5625C5.0697 7.21925 5.65129 7.21586 6.01172 7.55566L8.33691 9.74805L11.9873 5.2793Z" fill="#F67001"/>
</svg>
