<svg width="24" height="24" viewBox="0 0 24 24" fill="none" xmlns="http://www.w3.org/2000/svg">
<path d="M20.68 1.16255L20.659 1.15555L17.944 0.25555C17.0062 -0.0557943 15.9974 -0.0832768 15.044 0.17655L9.468 1.79555C8.78525 1.97648 8.06072 1.9128 7.42 1.61555L6.92 1.38355C6.16059 1.06772 5.335 0.944106 4.51639 1.02366C3.69779 1.1032 2.91144 1.38346 2.22705 1.83959C1.54266 2.29572 0.981356 2.91363 0.592883 3.63857C0.204411 4.36351 0.000767286 5.17308 0 5.99554L0 18.0705C0.0021016 19.1519 0.353792 20.2035 1.00259 21.0686C1.65139 21.9336 2.56251 22.5657 3.6 22.8705L6.469 23.7705C6.95302 23.921 7.45713 23.9969 7.964 23.9955C8.41581 24.0012 8.866 23.9403 9.3 23.8145L15.1 22.2145C15.63 22.0708 16.1893 22.0753 16.717 22.2275L19.06 22.9035C19.6482 23.0457 20.261 23.0526 20.8523 22.9237C21.4436 22.7947 21.9979 22.5333 22.4735 22.1591C22.9491 21.7849 23.3336 21.3076 23.598 20.7633C23.8624 20.2189 23.9999 19.6217 24 19.0165V5.87154C23.9985 4.84038 23.6788 3.83481 23.0847 2.99204C22.4905 2.14928 21.6507 1.51038 20.68 1.16255V1.16255ZM4.176 20.9545C3.55031 20.7736 3.00009 20.3948 2.6078 19.8748C2.2155 19.3549 2.00225 18.7219 2 18.0705V5.99554C1.99514 5.50022 2.11496 5.01164 2.34842 4.57476C2.58189 4.13789 2.9215 3.76676 3.336 3.49555C3.8292 3.16839 4.40816 2.99443 5 2.99555C5.38166 2.99565 5.75955 3.07109 6.112 3.21755C6.112 3.21755 6.857 3.53655 6.999 3.58755V21.8375L4.176 20.9545ZM9 21.8225V3.87455C9.33966 3.85652 9.67667 3.8046 10.006 3.71955L15 2.26855V20.1955L9 21.8225ZM22 19.0165C22.0002 19.3161 21.9331 19.6118 21.8037 19.882C21.6743 20.1521 21.4859 20.3898 21.2524 20.5773C21.0188 20.7649 20.7461 20.8976 20.4544 20.9657C20.1627 21.0337 19.8594 21.0354 19.567 20.9705L17 20.2475V2.07055L20.018 3.04955C20.598 3.2597 21.0993 3.64322 21.4539 4.14807C21.8085 4.65291 21.9991 5.25463 22 5.87154V19.0165Z" fill="#F67001"/>
</svg>
