<svg width="24" height="24" viewBox="0 0 24 24" fill="none" xmlns="http://www.w3.org/2000/svg">
<path d="M12 0C15.1815 0.00344108 18.2318 1.26887 20.4814 3.51855C22.7311 5.76825 23.9966 8.81846 24 12C24 14.3734 23.2961 16.6936 21.9775 18.667C20.659 20.6403 18.7845 22.1787 16.5918 23.0869C14.3993 23.995 11.9867 24.2324 9.65918 23.7695C7.33141 23.3065 5.19288 22.1636 3.51465 20.4854C1.83642 18.8071 0.693491 16.6686 0.230469 14.3408C-0.232447 12.0133 0.00503221 9.6007 0.913086 7.4082C1.82131 5.21555 3.35969 3.34103 5.33301 2.02246C7.3064 0.703885 9.62663 1.13119e-06 12 0ZM15.8271 2.76074C13.9999 2.00387 11.9886 1.80653 10.0488 2.19238C8.10914 2.57827 6.32716 3.53026 4.92871 4.92871C3.53026 6.32716 2.57827 8.10914 2.19238 10.0488C1.80653 11.9886 2.00387 13.9999 2.76074 15.8271C3.51761 17.6543 4.79992 19.2157 6.44434 20.3145C8.08883 21.4133 10.0222 22 12 22C14.6513 21.9971 17.1927 20.9421 19.0674 19.0674C20.9421 17.1926 21.9971 14.6513 22 12C22 10.0222 21.4133 8.08883 20.3145 6.44434C19.2157 4.79992 17.6543 3.51761 15.8271 2.76074ZM12 6C12.2652 6.00001 12.5195 6.10545 12.707 6.29297C12.8946 6.4805 13 6.7348 13 7V11.8789C13.0018 12.05 12.96 12.219 12.8779 12.3691C12.7958 12.5193 12.6763 12.6464 12.5312 12.7373L8.69141 15.1367C8.46604 15.2775 8.19349 15.3234 7.93457 15.2637C7.67562 15.2039 7.4504 15.0437 7.30957 14.8184C7.16875 14.5929 7.12379 14.3205 7.18359 14.0615C7.24342 13.8025 7.40347 13.5774 7.62891 13.4365L11 11.3252V7C11 6.73478 11.1054 6.4805 11.293 6.29297C11.4805 6.10545 11.7348 6 12 6Z" fill="#F67001"/>
</svg>
