<svg width="24" height="24" viewBox="0 0 24 24" fill="none" xmlns="http://www.w3.org/2000/svg">
<path d="M10.5015 17.0013C10.2386 17.0015 9.97814 16.9498 9.73517 16.8493C9.49219 16.7487 9.27143 16.6012 9.08552 16.4153L5.30152 12.7163C5.11189 12.5306 5.00378 12.2772 5.00096 12.0119C4.99815 11.7465 5.10087 11.4909 5.28652 11.3013C5.47217 11.1116 5.72555 11.0035 5.99091 11.0007C6.25628 10.9979 6.51189 11.1006 6.70152 11.2863L10.4945 14.9933L17.3005 8.29326C17.4924 8.12439 17.7418 8.03543 17.9972 8.04467C18.2527 8.05391 18.495 8.16065 18.6742 8.34295C18.8534 8.52525 18.956 8.76927 18.9609 9.02487C18.9658 9.28047 18.8726 9.52823 18.7005 9.71726L11.9075 16.4243C11.7226 16.6082 11.5033 16.7538 11.262 16.8528C11.0207 16.9518 10.7623 17.0023 10.5015 17.0013ZM24.0015 19.0013V12.3413C24.0388 9.25871 22.9086 6.27616 20.8378 3.99243C18.7671 1.70871 15.909 0.292901 12.8375 0.0292633C11.1232 -0.090679 9.40305 0.159003 7.79355 0.761416C6.18406 1.36383 4.72272 2.30492 3.50843 3.52101C2.29414 4.73711 1.35522 6.19983 0.755193 7.81022C0.155166 9.42061 -0.0919656 11.1411 0.0305181 12.8553C0.472518 19.2093 6.08352 24.0013 13.0845 24.0013H19.0015C20.3271 23.9997 21.598 23.4724 22.5353 22.535C23.4726 21.5977 23.9999 20.3269 24.0015 19.0013ZM12.7015 2.02526C15.268 2.2523 17.6534 3.44217 19.3786 5.35582C21.1038 7.26946 22.0408 9.76508 22.0015 12.3413V19.0013C22.0015 19.7969 21.6855 20.56 21.1228 21.1226C20.5602 21.6852 19.7972 22.0013 19.0015 22.0013H13.0845C7.05052 22.0013 2.40152 18.1013 2.02652 12.7173C1.92807 11.3458 2.11349 9.96886 2.5712 8.67233C3.02891 7.3758 3.74907 6.18759 4.68669 5.18193C5.62431 4.17628 6.75924 3.37478 8.02059 2.82751C9.28193 2.28025 10.6426 1.99897 12.0175 2.00126C12.2445 2.00126 12.4735 2.01026 12.7015 2.02526Z" fill="#F67001"/>
</svg>
