<svg width="21" height="24" viewBox="0 0 21 24" fill="none" xmlns="http://www.w3.org/2000/svg">
<path fill-rule="evenodd" clip-rule="evenodd" d="M9.50259 23.4223L19.9833 14.6259C20.4069 14.2708 20.3931 13.7999 19.5927 13.5824C14.7045 12.2719 7.1534 11.8259 0.397366 13.6568C-0.18581 13.8137 -0.196848 14.3479 0.842967 14.2515C4.86745 13.8798 7.48897 13.8137 12.1379 15.1325C12.3277 15.1848 12.3194 15.4078 12.0388 15.361C8.60304 14.6425 6.20439 14.5351 1.91583 15.6364C1.39317 15.774 1.17308 16.3109 2.3752 16.187C6.64999 15.7851 8.23442 16.1512 11.0761 17.2304C11.3346 17.3295 11.2026 17.525 10.966 17.4672C8.53144 16.8361 5.98288 16.7852 3.52503 17.3185C2.9446 17.4479 2.76028 17.9903 3.98715 17.938C5.86323 17.8582 10.8065 18.6896 9.48879 20.5342L8.55357 22.2908C7.46696 24.3612 8.4545 24.3006 9.50259 23.4223Z" fill="#002B45"/>
<path fill-rule="evenodd" clip-rule="evenodd" d="M10.7571 0.57075L0.276446 9.38096C-0.147182 9.73615 -0.133382 10.207 0.667109 10.4272C5.55535 11.735 13.1064 12.181 19.8624 10.3501C20.4456 10.1932 20.4593 9.65907 19.4168 9.75544C15.3923 10.1271 12.7735 10.1932 8.12181 8.87444C7.932 8.82213 7.94029 8.59911 8.22089 8.64864C11.6567 9.36449 14.0582 9.47459 18.3439 8.3568C18.8694 8.21915 19.0866 7.68226 17.8845 7.80617C13.6097 8.20811 12.0253 7.84193 9.18366 6.76267C8.92507 6.66631 9.05712 6.46814 9.29369 6.5287C11.7294 7.15906 14.2789 7.20901 16.7375 6.67465C17.3151 6.54799 17.4995 6.00285 16.2726 6.05516C14.3965 6.13502 9.45325 5.3035 10.7709 3.45885L11.7061 1.70234C12.7928 -0.365306 11.8052 -0.293753 10.7571 0.57075Z" fill="#F67001"/>
</svg>
