<svg width="24" height="23" viewBox="0 0 24 23" fill="none" xmlns="http://www.w3.org/2000/svg">
<path d="M22.0575 4.25244L14.6835 0.739438C13.0603 -0.230125 11.04 -0.247328 9.40052 0.694438L1.94355 4.25244C1.91557 4.26645 1.88655 4.28145 1.85955 4.29744C0.0899255 5.30928 -0.524418 7.56411 0.487425 9.33373C0.83041 9.93364 1.33493 10.4252 1.94355 10.7525L4.00057 11.7325V16.6325C4.00178 18.8235 5.42749 20.7593 7.51957 21.4105C8.97546 21.8316 10.4851 22.0378 12.0006 22.0225C13.5159 22.0394 15.0255 21.835 16.4816 21.4155C18.5737 20.7643 19.9994 18.8285 20.0006 16.6375V11.7305L22.0006 10.7744V19.0224C22.0006 19.5747 22.4483 20.0224 23.0006 20.0224C23.5529 20.0224 24.0006 19.5747 24.0006 19.0224V7.02242C24.0072 5.84816 23.0801 4.76338 22.0575 4.25244ZM18.0005 16.6375C18.0011 17.948 17.1507 19.1073 15.9005 19.5005C14.6328 19.8627 13.319 20.0385 12.0005 20.0225C10.6821 20.0385 9.36832 19.8627 8.10054 19.5005C6.85033 19.1073 6.00002 17.948 6.00054 16.6375V12.6855L9.31755 14.2655C10.136 14.7515 11.0707 15.0069 12.0226 15.0045C12.9286 15.0109 13.8193 14.771 14.5996 14.3105L18.0005 12.6854V16.6375ZM21.2006 8.94744L13.6586 12.5474C12.607 13.1598 11.3035 13.1424 10.2686 12.5024L2.88953 8.99244C2.06702 8.54891 1.7598 7.52258 2.20333 6.70011C2.35333 6.42195 2.57824 6.19138 2.85255 6.03444L10.3475 2.45445C11.3995 1.84348 12.7022 1.86078 13.7375 2.49945L21.1115 6.01245C21.6538 6.31358 21.9931 6.88222 22.0005 7.50247C22.0015 8.09 21.699 8.63638 21.2006 8.94744Z" fill="#F67001"/>
</svg>
