<svg width="24" height="24" viewBox="0 0 24 24" fill="none" xmlns="http://www.w3.org/2000/svg">
<mask id="path-1-inside-1_979_676" fill="white">
<path d="M19 4.35875H16.9C16.6679 3.12894 16.0538 2.02393 15.1613 1.22995C14.2687 0.435973 13.1522 0.00158498 12 0H5C3.6744 0.00173027 2.40356 0.576316 1.46622 1.59772C0.528882 2.61912 0.00158786 4.00395 0 5.44843L0 15.2556C0.0025138 16.2316 0.305538 17.1784 0.860536 17.9444C1.41553 18.7104 2.19039 19.2512 3.061 19.4803C2.96676 20.0257 2.98287 20.5868 3.10819 21.1247C3.23351 21.6625 3.46503 22.1641 3.7866 22.5944C4.10816 23.0247 4.51202 23.3733 4.96999 23.616C5.42796 23.8587 5.92901 23.9895 6.43817 23.9994C6.94733 24.0093 7.45234 23.898 7.91796 23.6733C8.38357 23.4485 8.79858 23.1158 9.13401 22.6983C9.46944 22.2807 9.71722 21.7885 9.86006 21.2558C10.0029 20.7232 10.0373 20.163 9.961 19.6144H14.043C14.0173 19.7947 14.0036 19.9767 14.002 20.1592C14.002 21.1707 14.3707 22.1408 15.0271 22.856C15.6835 23.5713 16.5737 23.9731 17.502 23.9731C18.4303 23.9731 19.3205 23.5713 19.9769 22.856C20.6333 22.1408 21.002 21.1707 21.002 20.1592C21.0009 19.9313 20.9804 19.7041 20.941 19.4803C21.8112 19.2508 22.5856 18.7098 23.1403 17.9438C23.6949 17.1778 23.9976 16.2313 24 15.2556V9.80718C23.9984 8.3627 23.4711 6.97787 22.5338 5.95647C21.5964 4.93506 20.3256 4.36048 19 4.35875ZM22 9.80718V10.8969H17V6.53812H19C19.7956 6.53812 20.5587 6.88254 21.1213 7.49561C21.6839 8.10867 22 8.94017 22 9.80718ZM2 15.2556V5.44843C2 4.58142 2.31607 3.74993 2.87868 3.13686C3.44129 2.52379 4.20435 2.17937 5 2.17937H12C12.7956 2.17937 13.5587 2.52379 14.1213 3.13686C14.6839 3.74993 15 4.58142 15 5.44843V17.435H4C3.46957 17.435 2.96086 17.2054 2.58579 16.7967C2.21071 16.3879 2 15.8336 2 15.2556ZM8 20.1592C8 20.5927 7.84196 21.0085 7.56066 21.315C7.27936 21.6215 6.89782 21.7937 6.5 21.7937C6.10218 21.7937 5.72064 21.6215 5.43934 21.315C5.15804 21.0085 5 20.5927 5 20.1592C5.00061 19.973 5.03212 19.7884 5.093 19.6144H7.907C7.96788 19.7884 7.99939 19.973 8 20.1592ZM17.5 21.7937C17.1022 21.7937 16.7206 21.6215 16.4393 21.315C16.158 21.0085 16 20.5927 16 20.1592C16.0004 19.9729 16.032 19.7883 16.093 19.6144H18.907C18.968 19.7883 18.9996 19.9729 19 20.1592C19 20.5927 18.842 21.0085 18.5607 21.315C18.2794 21.6215 17.8978 21.7937 17.5 21.7937ZM20 17.435H17V13.0762H22V15.2556C22 15.8336 21.7893 16.3879 21.4142 16.7967C21.0391 17.2054 20.5304 17.435 20 17.435Z"/>
</mask>
<path d="M19 4.35875H16.9C16.6679 3.12894 16.0538 2.02393 15.1613 1.22995C14.2687 0.435973 13.1522 0.00158498 12 0H5C3.6744 0.00173027 2.40356 0.576316 1.46622 1.59772C0.528882 2.61912 0.00158786 4.00395 0 5.44843L0 15.2556C0.0025138 16.2316 0.305538 17.1784 0.860536 17.9444C1.41553 18.7104 2.19039 19.2512 3.061 19.4803C2.96676 20.0257 2.98287 20.5868 3.10819 21.1247C3.23351 21.6625 3.46503 22.1641 3.7866 22.5944C4.10816 23.0247 4.51202 23.3733 4.96999 23.616C5.42796 23.8587 5.92901 23.9895 6.43817 23.9994C6.94733 24.0093 7.45234 23.898 7.91796 23.6733C8.38357 23.4485 8.79858 23.1158 9.13401 22.6983C9.46944 22.2807 9.71722 21.7885 9.86006 21.2558C10.0029 20.7232 10.0373 20.163 9.961 19.6144H14.043C14.0173 19.7947 14.0036 19.9767 14.002 20.1592C14.002 21.1707 14.3707 22.1408 15.0271 22.856C15.6835 23.5713 16.5737 23.9731 17.502 23.9731C18.4303 23.9731 19.3205 23.5713 19.9769 22.856C20.6333 22.1408 21.002 21.1707 21.002 20.1592C21.0009 19.9313 20.9804 19.7041 20.941 19.4803C21.8112 19.2508 22.5856 18.7098 23.1403 17.9438C23.6949 17.1778 23.9976 16.2313 24 15.2556V9.80718C23.9984 8.3627 23.4711 6.97787 22.5338 5.95647C21.5964 4.93506 20.3256 4.36048 19 4.35875ZM22 9.80718V10.8969H17V6.53812H19C19.7956 6.53812 20.5587 6.88254 21.1213 7.49561C21.6839 8.10867 22 8.94017 22 9.80718ZM2 15.2556V5.44843C2 4.58142 2.31607 3.74993 2.87868 3.13686C3.44129 2.52379 4.20435 2.17937 5 2.17937H12C12.7956 2.17937 13.5587 2.52379 14.1213 3.13686C14.6839 3.74993 15 4.58142 15 5.44843V17.435H4C3.46957 17.435 2.96086 17.2054 2.58579 16.7967C2.21071 16.3879 2 15.8336 2 15.2556ZM8 20.1592C8 20.5927 7.84196 21.0085 7.56066 21.315C7.27936 21.6215 6.89782 21.7937 6.5 21.7937C6.10218 21.7937 5.72064 21.6215 5.43934 21.315C5.15804 21.0085 5 20.5927 5 20.1592C5.00061 19.973 5.03212 19.7884 5.093 19.6144H7.907C7.96788 19.7884 7.99939 19.973 8 20.1592ZM17.5 21.7937C17.1022 21.7937 16.7206 21.6215 16.4393 21.315C16.158 21.0085 16 20.5927 16 20.1592C16.0004 19.9729 16.032 19.7883 16.093 19.6144H18.907C18.968 19.7883 18.9996 19.9729 19 20.1592C19 20.5927 18.842 21.0085 18.5607 21.315C18.2794 21.6215 17.8978 21.7937 17.5 21.7937ZM20 17.435H17V13.0762H22V15.2556C22 15.8336 21.7893 16.3879 21.4142 16.7967C21.0391 17.2054 20.5304 17.435 20 17.435Z" fill="#F67001"/>
<path d="M19 4.35875L19.0278 -16.9746L19.0139 -16.9746H19V4.35875ZM16.9 4.35875L-4.06327 8.31506L-0.783776 25.6921H16.9V4.35875ZM12 0L12.0293 -21.3333L12.0147 -21.3333H12V0ZM5 0V-21.3333H4.98608L4.97215 -21.3333L5 0ZM0 5.44843L-21.3333 5.42498L-21.3333 5.43671V5.44843H0ZM0 15.2556H-21.3333V15.2831L-21.3333 15.3106L0 15.2556ZM3.061 19.4803L24.0828 23.113L27.4151 3.82954L8.4901 -1.15062L3.061 19.4803ZM9.961 19.6144V-1.71897H-14.5462L-11.1688 22.5544L9.961 19.6144ZM14.043 19.6144L35.1624 22.6283L38.6369 -1.71897H14.043V19.6144ZM14.002 20.1592L-7.33055 19.9759L-7.33133 20.0676V20.1592H14.002ZM21.002 20.1592H42.3353V20.1062L42.3351 20.0532L21.002 20.1592ZM20.941 19.4803L15.5005 -1.1476L-3.47549 3.85724L-0.0683667 23.1841L20.941 19.4803ZM24 15.2556L45.3333 15.3082L45.3333 15.2819V15.2556H24ZM24 9.80718H45.3333V9.79545L45.3333 9.78373L24 9.80718ZM22 9.80718H43.3333H22ZM22 10.8969V32.2302H43.3333V10.8969H22ZM17 10.8969H-4.33333V32.2302H17V10.8969ZM17 6.53812V-14.7952H-4.33333V6.53812H17ZM2 15.2556H-19.3333H2ZM2 5.44843H-19.3333H2ZM5 2.17937V-19.154V2.17937ZM15 17.435V38.7683H36.3333V17.435H15ZM8 20.1592H29.3333V20.124L29.3332 20.0888L8 20.1592ZM5 20.1592L-16.3332 20.0888L-16.3333 20.124V20.1592H5ZM5.093 19.6144V-1.71897H-10.045L-15.0437 12.5699L5.093 19.6144ZM7.907 19.6144L28.0437 12.5699L23.045 -1.71897H7.907V19.6144ZM16 20.1592L-5.33328 20.1091L-5.33333 20.1341V20.1592H16ZM16.093 19.6144V-1.71897H0.970546L-4.03686 12.5504L16.093 19.6144ZM18.907 19.6144L39.0369 12.5504L34.0295 -1.71897H18.907V19.6144ZM19 20.1592H40.3333V20.1341L40.3333 20.1091L19 20.1592ZM17 17.435H-4.33333V38.7683H17V17.435ZM17 13.0762V-8.25709H-4.33333V13.0762H17ZM22 13.0762H43.3333V-8.25709H22V13.0762ZM19 4.35875V-16.9746H16.9V4.35875V25.6921H19V4.35875ZM16.9 4.35875L37.8633 0.402433C36.8012 -5.22491 33.9327 -10.6244 29.3401 -14.7096L15.1613 1.22995L0.982357 17.1695C-1.82505 14.6722 -3.46544 11.4828 -4.06327 8.31506L16.9 4.35875ZM15.1613 1.22995L29.3401 -14.7096C24.7066 -18.8313 18.6057 -21.3243 12.0293 -21.3333L12 0L11.9707 21.3333C7.69869 21.3274 3.83075 19.7033 0.982357 17.1695L15.1613 1.22995ZM12 0V-21.3333H5V0V21.3333H12V0ZM5 0L4.97215 -21.3333C-2.6212 -21.3234 -9.48913 -18.0162 -14.2517 -12.8265L1.46622 1.59772L17.1841 16.022C14.2962 19.1688 9.97001 21.3269 5.02785 21.3333L5 0ZM1.46622 1.59772L-14.2517 -12.8265C-18.9583 -7.69783 -21.3261 -1.10671 -21.3333 5.42498L0 5.44843L21.3333 5.47188C21.3293 9.11461 20.016 12.9361 17.1841 16.022L1.46622 1.59772ZM0 5.44843H-21.3333V15.2556H0H21.3333V5.44843H0ZM0 15.2556L-21.3333 15.3106C-21.3196 20.6114 -19.6843 25.9488 -16.4149 30.4612L0.860536 17.9444L18.136 5.42753C20.2954 8.40796 21.3246 11.8517 21.3333 15.2007L0 15.2556ZM0.860536 17.9444L-16.4149 30.4612C-13.126 35.0005 -8.26154 38.5604 -2.3681 40.1113L3.061 19.4803L8.4901 -1.15062C12.6423 -0.0579468 15.957 2.42023 18.136 5.42753L0.860536 17.9444ZM3.061 19.4803L-17.9608 15.8476C-18.54 19.1995 -18.443 22.6422 -17.6686 25.9658L3.10819 21.1247L23.885 16.2836C24.4088 18.5315 24.4735 20.8519 24.0828 23.113L3.061 19.4803ZM3.10819 21.1247L-17.6686 25.9658C-16.8939 29.2905 -15.4375 32.5076 -13.3021 35.365L3.7866 22.5944L20.8753 9.82377C22.3676 11.8206 23.3609 14.0346 23.885 16.2836L3.10819 21.1247ZM3.7866 22.5944L-13.3021 35.365C-11.163 38.2273 -8.36603 40.6927 -5.01844 42.4665L4.96999 23.616L14.9584 4.76546C17.3901 6.05394 19.3793 7.82206 20.8753 9.82377L3.7866 22.5944ZM4.96999 23.616L-5.01844 42.4665C-1.66172 44.2452 2.1122 45.2527 6.02385 45.3287L6.43817 23.9994L6.85249 2.67009C9.74582 2.72629 12.5176 3.47216 14.9584 4.76546L4.96999 23.616ZM6.43817 23.9994L6.02385 45.3287C9.93613 45.4047 13.755 44.5442 17.1908 42.8859L7.91796 23.6733L-1.35489 4.46062C1.14972 3.25179 3.95854 2.61387 6.85249 2.67009L6.43817 23.9994ZM7.91796 23.6733L17.1908 42.8859C20.6175 41.232 23.516 38.8589 25.7651 36.0593L9.13401 22.6983L-7.4971 9.33723C-5.91883 7.37268 -3.85035 5.66504 -1.35489 4.46062L7.91796 23.6733ZM9.13401 22.6983L25.7651 36.0593C28.0101 33.2648 29.5791 30.0864 30.4654 26.7814L9.86006 21.2558L-10.7453 15.7303C-10.1447 13.4906 -9.07125 11.2967 -7.4971 9.33723L9.13401 22.6983ZM9.86006 21.2558L30.4654 26.7814C31.3513 23.4777 31.5589 20.0384 31.0908 16.6743L9.961 19.6144L-11.1688 22.5544C-11.4842 20.2876 -11.3455 17.9686 -10.7453 15.7303L9.86006 21.2558ZM9.961 19.6144V40.9477H14.043V19.6144V-1.71897H9.961V19.6144ZM14.043 19.6144L-7.07636 16.6004C-7.23617 17.7202 -7.32086 18.848 -7.33055 19.9759L14.002 20.1592L35.3345 20.3425C35.328 21.1055 35.2707 21.8691 35.1624 22.6283L14.043 19.6144ZM14.002 20.1592H-7.33133C-7.33133 26.2656 -5.12215 32.4515 -0.690775 37.2803L15.0271 22.856L30.745 8.4318C33.8637 11.8301 35.3353 16.0759 35.3353 20.1592H14.002ZM15.0271 22.856L-0.690775 37.2803C3.79695 42.1705 10.2957 45.3064 17.502 45.3064V23.9731V2.63977C22.8518 2.63977 27.5701 4.97208 30.745 8.4318L15.0271 22.856ZM17.502 23.9731V45.3064C24.7083 45.3064 31.2071 42.1705 35.6948 37.2803L19.9769 22.856L4.25897 8.4318C7.43393 4.97208 12.1522 2.63977 17.502 2.63977V23.9731ZM19.9769 22.856L35.6948 37.2803C40.1261 32.4515 42.3353 26.2656 42.3353 20.1592H21.002H-0.331333C-0.331333 16.0758 1.14036 11.8301 4.25897 8.4318L19.9769 22.856ZM21.002 20.1592L42.3351 20.0532C42.328 18.6224 42.1998 17.1916 41.9504 15.7766L20.941 19.4803L-0.0683667 23.1841C-0.23892 22.2166 -0.326224 21.2403 -0.33107 20.2652L21.002 20.1592ZM20.941 19.4803L26.3815 40.1083C32.272 38.5547 37.1332 34.994 40.4196 30.4553L23.1403 17.9438L5.86095 5.43234C8.03811 2.42551 11.3504 -0.0530475 15.5005 -1.1476L20.941 19.4803ZM23.1403 17.9438L40.4196 30.4553C43.6865 25.9434 45.3202 20.6075 45.3333 15.3082L24 15.2556L2.66673 15.203C2.67498 11.8551 3.70321 8.41234 5.86095 5.43234L23.1403 17.9438ZM24 15.2556H45.3333V9.80718H24H2.66667V15.2556H24ZM24 9.80718L45.3333 9.78373C45.3261 3.25204 42.9583 -3.33908 38.2517 -8.46777L22.5338 5.95647L6.81588 20.3807C3.98398 17.2948 2.67068 13.4733 2.66668 9.83063L24 9.80718ZM22.5338 5.95647L38.2517 -8.46777C33.4891 -13.6575 26.6212 -16.9647 19.0278 -16.9746L19 4.35875L18.9722 25.6921C14.03 25.6856 9.70376 23.5276 6.81588 20.3807L22.5338 5.95647ZM22 9.80718H0.666666V10.8969H22H43.3333V9.80718H22ZM22 10.8969V-10.4365H17V10.8969V32.2302H22V10.8969ZM17 10.8969H38.3333V6.53812H17H-4.33333V10.8969H17ZM17 6.53812V27.8715H19V6.53812V-14.7952H17V6.53812ZM19 6.53812V27.8715C13.5176 27.8715 8.67215 25.4817 5.40342 21.9198L21.1213 7.49561L36.8392 -6.92864C32.4453 -11.7167 26.0737 -14.7952 19 -14.7952V6.53812ZM21.1213 7.49561L5.40342 21.9198C2.19102 18.4193 0.666666 14.035 0.666666 9.80718H22H43.3333C43.3333 3.84533 41.1768 -2.20199 36.8392 -6.92864L21.1213 7.49561ZM2 15.2556H23.3333V5.44843H2H-19.3333V15.2556H2ZM2 5.44843H23.3333C23.3333 9.67628 21.809 14.0606 18.5966 17.5611L2.87868 3.13686L-12.8392 -11.2874C-17.1768 -6.56074 -19.3333 -0.513429 -19.3333 5.44843H2ZM2.87868 3.13686L18.5966 17.5611C15.3279 21.123 10.4824 23.5127 5 23.5127V2.17937V-19.154C-2.07373 -19.154 -8.44528 -16.0754 -12.8392 -11.2874L2.87868 3.13686ZM5 2.17937V23.5127H12V2.17937V-19.154H5V2.17937ZM12 2.17937V23.5127C6.51757 23.5127 1.67215 21.123 -1.59658 17.5611L14.1213 3.13686L29.8392 -11.2874C25.4453 -16.0754 19.0737 -19.154 12 -19.154V2.17937ZM14.1213 3.13686L-1.59658 17.5611C-4.80898 14.0606 -6.33333 9.67627 -6.33333 5.44843H15H36.3333C36.3333 -0.513421 34.1768 -6.56074 29.8392 -11.2874L14.1213 3.13686ZM15 5.44843H-6.33333V17.435H15H36.3333V5.44843H15ZM15 17.435V-3.89835H4V17.435V38.7683H15V17.435ZM4 17.435V-3.89835C9.74768 -3.89835 14.8474 -1.3938 18.3037 2.37242L2.58579 16.7967L-13.1321 31.2209C-8.92573 35.8045 -2.80855 38.7683 4 38.7683V17.435ZM2.58579 16.7967L18.3037 2.37242C21.7036 6.07727 23.3333 10.7388 23.3333 15.2556H2H-19.3333C-19.3333 20.9285 -17.2822 26.6986 -13.1321 31.2209L2.58579 16.7967ZM8 20.1592H-13.3333C-13.3333 15.4979 -11.6509 10.6978 -8.15724 6.89075L7.56066 21.315L23.2786 35.7392C27.3349 31.3191 29.3333 25.6876 29.3333 20.1592H8ZM7.56066 21.315L-8.15724 6.89075C-4.6072 3.02232 0.619748 0.460398 6.5 0.460398V21.7937V43.1271C13.1759 43.1271 19.1659 40.2207 23.2786 35.7392L7.56066 21.315ZM6.5 21.7937V0.460398C12.3803 0.460398 17.6072 3.02232 21.1572 6.89075L5.43934 21.315L-10.2786 35.7392C-6.16592 40.2207 -0.175902 43.1271 6.5 43.1271V21.7937ZM5.43934 21.315L21.1572 6.89075C24.6509 10.6978 26.3333 15.4979 26.3333 20.1592H5H-16.3333C-16.3333 25.6876 -14.3349 31.3191 -10.2786 35.7392L5.43934 21.315ZM5 20.1592L26.3332 20.2296C26.3261 22.3938 25.9612 24.5679 25.2297 26.6588L5.093 19.6144L-15.0437 12.5699C-15.8969 15.0089 -16.3249 17.5521 -16.3332 20.0888L5 20.1592ZM5.093 19.6144V40.9477H7.907V19.6144V-1.71897H5.093V19.6144ZM7.907 19.6144L-12.2297 26.6588C-12.9612 24.5679 -13.3261 22.3938 -13.3332 20.2296L8 20.1592L29.3332 20.0888C29.3249 17.5521 28.8969 15.0089 28.0437 12.5699L7.907 19.6144ZM17.5 21.7937V0.460398C23.3803 0.460398 28.6072 3.02233 32.1572 6.89075L16.4393 21.315L0.721439 35.7392C4.83407 40.2207 10.8241 43.1271 17.5 43.1271V21.7937ZM16.4393 21.315L32.1572 6.89075C35.6509 10.6978 37.3333 15.4978 37.3333 20.1592H16H-5.33333C-5.33333 25.6876 -3.33485 31.3191 0.721439 35.7392L16.4393 21.315ZM16 20.1592L37.3333 20.2093C37.3282 22.3871 36.961 24.5749 36.2229 26.6783L16.093 19.6144L-4.03686 12.5504C-4.8971 15.0018 -5.32728 17.5588 -5.33328 20.1091L16 20.1592ZM16.093 19.6144V40.9477H18.907V19.6144V-1.71897H16.093V19.6144ZM18.907 19.6144L-1.22286 26.6783C-1.961 24.5749 -2.32816 22.3871 -2.33328 20.2093L19 20.1592L40.3333 20.1091C40.3273 17.5588 39.8971 15.0018 39.0369 12.5504L18.907 19.6144ZM19 20.1592H-2.33333C-2.33333 15.4978 -0.650919 10.6978 2.84276 6.89075L18.5607 21.315L34.2786 35.7392C38.3348 31.3191 40.3333 25.6876 40.3333 20.1592H19ZM18.5607 21.315L2.84276 6.89075C6.39278 3.02233 11.6197 0.460398 17.5 0.460398V21.7937V43.1271C24.1759 43.1271 30.1659 40.2207 34.2786 35.7392L18.5607 21.315ZM20 17.435V-3.89835H17V17.435V38.7683H20V17.435ZM17 17.435H38.3333V13.0762H17H-4.33333V17.435H17ZM17 13.0762V34.4096H22V13.0762V-8.25709H17V13.0762ZM22 13.0762H0.666666V15.2556H22H43.3333V13.0762H22ZM22 15.2556H0.666666C0.666666 10.7387 2.2964 6.07726 5.69631 2.37242L21.4142 16.7967L37.1321 31.2209C41.2822 26.6986 43.3333 20.9285 43.3333 15.2556H22ZM21.4142 16.7967L5.69631 2.37242C9.15255 -1.3938 14.2523 -3.89835 20 -3.89835V17.435V38.7683C26.8086 38.7683 32.9257 35.8045 37.1321 31.2209L21.4142 16.7967Z" fill="#F67001" mask="url(#path-1-inside-1_979_676)"/>
</svg>
