<svg width="24" height="24" viewBox="0 0 24 24" fill="none" xmlns="http://www.w3.org/2000/svg">
<path d="M23 16C23.2652 16 23.5195 16.1054 23.707 16.293C23.8946 16.4805 24 16.7348 24 17V21C24 21.7956 23.6837 22.5585 23.1211 23.1211C22.5585 23.6837 21.7956 24 21 24H3C2.20435 24 1.44151 23.6837 0.878906 23.1211C0.316299 22.5585 2.52563e-06 21.7956 0 21V17C0 16.7348 0.105433 16.4805 0.292969 16.293C0.480505 16.1054 0.734784 16 1 16C1.26522 16 1.51949 16.1054 1.70703 16.293C1.89457 16.4805 2 16.7348 2 17V21C2 21.2652 2.10543 21.5195 2.29297 21.707C2.4805 21.8946 2.73479 22 3 22H21C21.2652 22 21.5195 21.8946 21.707 21.707C21.8946 21.5195 22 21.2652 22 21V17C22 16.7348 22.1054 16.4805 22.293 16.293C22.4805 16.1054 22.7348 16 23 16ZM12 0C12.2652 0 12.5195 0.105503 12.707 0.292969C12.8946 0.480505 13 0.734784 13 1L12.9932 16.4268L15.9189 13.5C16.109 13.3274 16.3586 13.2342 16.6152 13.2402C16.8717 13.2463 17.1162 13.351 17.2979 13.5322C17.4796 13.7135 17.5842 13.9582 17.5908 14.2148C17.5974 14.4714 17.5051 14.7208 17.333 14.9111L14.1221 18.1221C13.8435 18.4008 13.5125 18.6216 13.1484 18.7725C12.7844 18.9233 12.3941 19.001 12 19.001C11.6059 19.0009 11.2156 18.9233 10.8516 18.7725C10.4876 18.6216 10.1565 18.4008 9.87793 18.1221L6.66699 14.915C6.47945 14.7276 6.37416 14.4732 6.37402 14.208C6.37393 13.9428 6.47955 13.6886 6.66699 13.501C6.8545 13.3133 7.10875 13.2071 7.37402 13.207C7.6392 13.207 7.89346 13.3126 8.08105 13.5L10.9912 16.4082L11 1C11 0.734837 11.1055 0.480494 11.293 0.292969C11.4805 0.105486 11.7349 5.97507e-05 12 0Z" fill="white"/>
</svg>
