<svg width="24" height="24" viewBox="0 0 24 24" fill="none" xmlns="http://www.w3.org/2000/svg">
<path d="M7.55664 0C8.89628 0.00160896 10.1806 0.528777 11.1279 1.46582C12.0754 2.40316 12.6087 3.67441 12.6104 5V8C12.6104 8.26518 12.504 8.5195 12.3145 8.70703C12.1249 8.89457 11.8677 9 11.5996 9C11.3316 8.99999 11.0743 8.89456 10.8848 8.70703C10.6953 8.51951 10.5889 8.26516 10.5889 8V5C10.5889 4.20451 10.2696 3.44148 9.70117 2.87891C9.13252 2.31632 8.36083 2.00002 7.55664 2H5.05371C4.2496 2.00004 3.47878 2.31641 2.91016 2.87891C2.34148 3.44152 2.02148 4.20435 2.02148 5V19C2.02148 19.7956 2.34148 20.5585 2.91016 21.1211C3.47878 21.6836 4.2496 22 5.05371 22H7.55664C8.36083 22 9.13252 21.6837 9.70117 21.1211C10.2696 20.5585 10.5889 19.7955 10.5889 19V16C10.5889 15.7348 10.6953 15.4805 10.8848 15.293C11.0743 15.1054 11.3316 15 11.5996 15C11.8677 15 12.1249 15.1054 12.3145 15.293C12.504 15.4805 12.6104 15.7348 12.6104 16V19C12.6087 20.3256 12.0754 21.5968 11.1279 22.5342C10.1806 23.4712 8.89628 23.9984 7.55664 24H5.05371C3.71408 23.9984 2.42978 23.4712 1.48242 22.5342C0.534983 21.5968 0.00160497 20.3256 0 19V5C0.00160497 3.6744 0.534983 2.40316 1.48242 1.46582C2.42978 0.528771 3.71408 0.00163137 5.05371 0H7.55664ZM17.7598 4.98828C17.8938 4.98944 18.0262 5.01706 18.1494 5.06934C18.2727 5.12174 18.3843 5.19845 18.4775 5.29395L23.1133 9.87988C23.6814 10.4427 24.0004 11.2055 24 12.001C23.9996 12.7964 23.6799 13.5588 23.1113 14.1211L18.4756 18.708C18.3824 18.8033 18.2706 18.8793 18.1475 18.9316C18.0243 18.9839 17.8919 19.0115 17.7578 19.0127C17.6236 19.0138 17.4904 18.9887 17.3662 18.9385C17.242 18.8882 17.1291 18.8136 17.0342 18.7197C16.9394 18.6259 16.8643 18.5144 16.8135 18.3916C16.7627 18.2687 16.7371 18.1367 16.7383 18.0039C16.7395 17.8712 16.7674 17.7401 16.8203 17.6182C16.8733 17.4962 16.9504 17.3862 17.0469 17.2939L21.416 12.9697L6.06445 13.001C5.79645 13.0009 5.53912 12.8955 5.34961 12.708C5.16015 12.5206 5.05382 12.266 5.05371 12.001C5.05371 11.7359 5.1603 11.4814 5.34961 11.2939C5.53912 11.1065 5.79645 11.001 6.06445 11.001L21.3564 10.9707L17.0488 6.70801C16.9523 6.61576 16.8752 6.50482 16.8223 6.38281C16.7693 6.26087 16.7414 6.12977 16.7402 5.99707C16.7391 5.86429 16.7646 5.73227 16.8154 5.60938C16.8662 5.48659 16.9413 5.37507 17.0361 5.28125C17.131 5.18736 17.2439 5.11278 17.3682 5.0625C17.4924 5.01223 17.6256 4.98713 17.7598 4.98828Z" fill="#F67001"/>
</svg>
