<svg width="27" height="24" viewBox="0 0 27 24" fill="none" xmlns="http://www.w3.org/2000/svg">
<path d="M19.685 0C18.4187 0.0199259 17.18 0.377534 16.0941 1.03671C15.0081 1.69589 14.1133 2.63329 13.5 3.75426C12.8867 2.63329 11.9919 1.69589 10.9059 1.03671C9.81997 0.377534 8.58129 0.0199259 7.315 0C5.29637 0.0887265 3.3945 0.982085 2.02489 2.4849C0.655274 3.98772 -0.0707446 5.97784 0.00544405 8.02047C0.00544405 13.1934 5.38752 18.843 9.90145 22.6735C10.9093 23.5303 12.1836 24 13.5 24C14.8164 24 16.0907 23.5303 17.0985 22.6735C21.6125 18.843 26.9946 13.1934 26.9946 8.02047C27.0707 5.97784 26.3447 3.98772 24.9751 2.4849C23.6055 0.982085 21.7036 0.0887265 19.685 0ZM15.6535 20.9329C15.0507 21.4464 14.288 21.728 13.5 21.728C12.712 21.728 11.9493 21.4464 11.3465 20.9329C5.56857 16.0284 2.25454 11.3231 2.25454 8.02047C2.17766 6.58101 2.66653 5.1692 3.61452 4.09294C4.56251 3.01669 5.89271 2.36331 7.315 2.27531C8.73728 2.36331 10.0675 3.01669 11.0155 4.09294C11.9635 5.1692 12.4523 6.58101 12.3755 8.02047C12.3755 8.32219 12.4939 8.61156 12.7048 8.82491C12.9157 9.03826 13.2018 9.15812 13.5 9.15812C13.7982 9.15812 14.0843 9.03826 14.2952 8.82491C14.5061 8.61156 14.6245 8.32219 14.6245 8.02047C14.5477 6.58101 15.0365 5.1692 15.9845 4.09294C16.9325 3.01669 18.2627 2.36331 19.685 2.27531C21.1073 2.36331 22.4375 3.01669 23.3855 4.09294C24.3335 5.1692 24.8223 6.58101 24.7455 8.02047C24.7455 11.3231 21.4314 16.0284 15.6535 20.9283V20.9329Z" fill="#F67001"/>
</svg>
