<svg width="9" height="12" viewBox="0 0 9 12" fill="none" xmlns="http://www.w3.org/2000/svg">
<path d="M2.00001 9.38957V2.61043C1.99925 2.48989 2.03752 2.37186 2.10994 2.27141C2.18236 2.17095 2.28565 2.09262 2.40664 2.04639C2.52763 2.00017 2.66085 1.98815 2.78929 2.01186C2.91774 2.03557 3.03561 2.09394 3.12786 2.17953L6.8082 5.57213C6.93105 5.68584 7 5.83966 7 6C7 6.16034 6.93105 6.31416 6.8082 6.42787L3.12786 9.82047C3.03561 9.90606 2.91774 9.96443 2.78929 9.98814C2.66085 10.0119 2.52763 9.99983 2.40664 9.95361C2.28565 9.90738 2.18236 9.82905 2.10994 9.72859C2.03752 9.62814 1.99925 9.51011 2.00001 9.38957Z" fill="#F67001"/>
</svg>
