<svg width="20" height="24" viewBox="0 0 20 24" fill="none" xmlns="http://www.w3.org/2000/svg">
<path d="M10 0C12.6521 0 15.196 1.05963 17.0713 2.94531C18.9465 4.8309 19.9999 7.38812 20 10.0547C20 12.5926 18.078 16.5449 14.2881 21.8018C13.8002 22.4861 13.156 23.043 12.4102 23.4258C11.6642 23.8085 10.8374 24.0063 10 24.002C9.16267 24.0062 8.33666 23.8085 7.59082 23.4258C6.84489 23.043 6.20079 22.4861 5.71289 21.8018C1.9229 16.5449 0 12.5927 0 10.0547C8.26946e-05 7.38805 1.05443 4.83092 2.92969 2.94531C4.80494 1.05972 7.34801 8.27812e-05 10 0ZM10 2.18262C7.92398 2.18508 5.93379 3.01612 4.46582 4.49219C2.99793 5.96824 2.17239 7.96924 2.16992 10.0566C2.16992 12.0666 4.05258 15.7844 7.46973 20.5234C7.75978 20.925 8.14034 21.2522 8.58008 21.4775C9.01983 21.7029 9.50644 21.8203 10 21.8203C10.4938 21.8203 10.981 21.703 11.4209 21.4775C11.8607 21.2521 12.2412 20.9251 12.5312 20.5234C15.9484 15.7844 17.8311 12.0666 17.8311 10.0566C17.8286 7.96932 17.0029 5.96822 15.5352 4.49219C14.0671 3.01604 12.0761 2.185 10 2.18262ZM10 6.00195C11.055 6.00195 12.0674 6.42368 12.8135 7.17383C13.5594 7.92396 13.9785 8.94118 13.9785 10.002C13.9785 10.7931 13.7457 11.5668 13.3086 12.2246C12.8715 12.8824 12.2493 13.3945 11.5225 13.6973C10.7957 13.9999 9.99615 14.0791 9.22461 13.9248C8.45294 13.7705 7.74384 13.3895 7.1875 12.8301C6.63126 12.2707 6.25211 11.5581 6.09863 10.7822C5.9452 10.0065 6.02426 9.20243 6.3252 8.47168C6.62627 7.74082 7.13591 7.1153 7.79004 6.67578C8.44409 6.23635 9.21339 6.00205 10 6.00195ZM10.7617 8.1543C10.3983 8.00292 9.99814 7.96287 9.6123 8.04004C9.2265 8.11722 8.8719 8.3082 8.59375 8.58789C8.31581 8.86745 8.12659 9.22364 8.0498 9.61133C7.97306 9.99929 8.01254 10.4021 8.16309 10.7676C8.31365 11.1329 8.5685 11.4453 8.89551 11.665C9.22244 11.8847 9.60682 12.0019 10 12.002C10.5275 12.002 11.0342 11.7911 11.4072 11.416C11.7801 11.041 11.9893 10.5323 11.9893 10.002C11.9893 9.60639 11.8729 9.21952 11.6543 8.89062C11.4358 8.56182 11.1251 8.30566 10.7617 8.1543Z" fill="#F67001"/>
</svg>
