<svg width="41" height="48" viewBox="0 0 41 48" fill="none" xmlns="http://www.w3.org/2000/svg">
<path fill-rule="evenodd" clip-rule="evenodd" d="M19.0052 46.8447L39.9665 29.2518C40.8138 28.5415 40.7863 27.5999 39.1854 27.1649C29.4089 24.5438 14.3068 23.6518 0.794733 27.3136C-0.37162 27.6274 -0.393697 28.6957 1.68593 28.503C9.7349 27.7596 14.9779 27.6274 24.2758 30.265C24.6554 30.3696 24.6389 30.8157 24.0777 30.7221C17.2061 29.2849 12.4088 29.0702 3.83166 31.2728C2.78634 31.548 2.34617 32.6218 4.75039 32.374C13.3 31.5701 16.4688 32.3023 22.1521 34.4608C22.6692 34.659 22.4052 35.0501 21.9321 34.9344C17.0629 33.6722 11.9658 33.5704 7.05005 34.6371C5.8892 34.8958 5.52055 35.9807 7.9743 35.876C11.7265 35.7163 21.6129 37.3792 18.9776 41.0685L17.1071 44.5816C14.9339 48.7224 16.909 48.6012 19.0052 46.8447Z" fill="#002B45"/>
<path fill-rule="evenodd" clip-rule="evenodd" d="M21.5143 1.1415L0.552892 18.7619C-0.294364 19.4723 -0.266764 20.4139 1.33422 20.8544C11.1107 23.4699 26.2127 24.362 39.7248 20.7002C40.8912 20.3864 40.9186 19.3181 38.8335 19.5109C30.7845 20.2542 25.547 20.3865 16.2436 17.7489C15.864 17.6443 15.8806 17.1982 16.4418 17.2973C23.3133 18.729 28.1163 18.9492 36.6879 16.7136C37.7387 16.4383 38.1733 15.3645 35.769 15.6123C27.2195 16.4162 24.0506 15.6839 18.3673 13.5253C17.8501 13.3326 18.1142 12.9363 18.5874 13.0574C23.4589 14.3181 28.5578 14.418 33.4749 13.3493C34.6302 13.096 34.9989 12.0057 32.5451 12.1103C28.793 12.27 18.9065 10.607 21.5419 6.9177L23.4123 3.40468C25.5855 -0.730613 23.6104 -0.587506 21.5143 1.1415Z" fill="#F67001"/>
</svg>
