<svg width="24" height="24" viewBox="0 0 24 24" fill="none" xmlns="http://www.w3.org/2000/svg">
<path d="M17.7128 7.09768C19.2122 7.09768 20.4283 8.2919 20.4286 9.76565V11.1699C20.4286 11.5795 20.5245 11.9833 20.7089 12.3506L21.7206 14.3682C22.0941 15.1126 22.0942 15.9852 21.7206 16.7295L20.7089 18.7461C20.5245 19.1134 20.4286 19.5182 20.4286 19.9278V21.3311C20.4286 22.805 19.2123 24 17.7128 24H4.28798C2.78847 24 1.57313 22.805 1.57313 21.3311V19.9278C1.57313 19.5182 1.47723 19.1134 1.29286 18.7461L0.280164 16.7295C-0.0934423 15.9852 -0.0933336 15.1125 0.280164 14.3682L1.29286 12.3506C1.47714 11.9834 1.57312 11.5794 1.57313 11.1699V9.76565C1.5734 8.29192 2.78863 7.09771 4.28798 7.09768H17.7128ZM4.28798 8.87698C3.78832 8.87701 3.38297 9.27456 3.3827 9.76565V11.1699C3.38269 11.8524 3.22308 12.5257 2.91591 13.1377L1.90321 15.1553C1.7788 15.4034 1.7787 15.6944 1.90321 15.9424L2.91591 17.959C3.2232 18.5712 3.3827 19.2451 3.3827 19.9278V21.3311C3.3827 21.8224 3.78816 22.2207 4.28798 22.2207H17.7128C18.2126 22.2207 18.6181 21.8224 18.6181 21.3311V19.9278C18.6181 19.2451 18.7776 18.5712 19.0849 17.959L20.0975 15.9424C20.2221 15.6943 20.222 15.4034 20.0975 15.1553L19.0849 13.1377C18.7777 12.5257 18.6181 11.8524 18.6181 11.1699V9.76565C18.6178 9.27455 18.2125 8.87698 17.7128 8.87698H4.28798ZM13.6141 11.5449C13.9731 11.2033 14.5457 11.2119 14.8934 11.5645C15.2411 11.9174 15.232 12.4805 14.8729 12.8223L11.6151 15.9239L8.35731 19.0244C7.99821 19.3662 7.42474 19.3569 7.07704 19.0039C6.72959 18.6509 6.73853 18.0878 7.09755 17.7461L13.6141 11.5449ZM13.8368 16.835C14.5114 16.8352 15.0585 17.356 15.0585 17.9981C15.0584 18.6401 14.5113 19.1609 13.8368 19.1612C13.1621 19.1612 12.6143 18.6402 12.6141 17.9981C12.6141 17.3558 13.162 16.835 13.8368 16.835ZM8.11415 11.4082C8.78883 11.4084 9.33583 11.9292 9.33583 12.5713C9.33578 13.2134 8.7888 13.7343 8.11415 13.7344C7.43938 13.7344 6.89251 13.2135 6.89247 12.5713C6.89247 11.9291 7.43936 11.4082 8.11415 11.4082ZM16.8202 0.122094C18.7514 -0.386522 20.7363 0.740389 21.2538 2.6387L21.4891 3.501C21.5619 3.7678 21.6972 4.01406 21.8837 4.22073L23.0878 5.55666C23.8438 6.39469 24.1541 7.53357 23.9257 8.63088L23.4335 10.9971C23.3331 11.4782 22.8547 11.788 22.3651 11.6895C21.8756 11.5908 21.5599 11.1209 21.66 10.6397L22.1522 8.27444C22.2665 7.7258 22.1113 7.15634 21.7333 6.73733L20.5292 5.40139C20.1564 4.98819 19.8866 4.49535 19.7411 3.96194L19.5057 3.09866C19.247 2.14968 18.2544 1.58671 17.289 1.84084L6.31727 4.73049C5.83461 4.85747 5.33832 4.57595 5.20887 4.10159C5.07951 3.627 5.36669 3.13891 5.8495 3.01174L16.8202 0.122094Z" fill="#F67001"/>
</svg>
