<svg width="4" height="20" viewBox="0 0 4 20" fill="none" xmlns="http://www.w3.org/2000/svg">
<path fill-rule="evenodd" clip-rule="evenodd" d="M1.66699 16.666C2.58743 16.6661 3.33393 17.4126 3.33398 18.333C3.33398 19.2534 2.58747 19.9999 1.66699 20C0.746436 20 0 19.2535 0 18.333C5.49555e-05 17.4126 0.74647 16.666 1.66699 16.666ZM1.66699 8.33398C2.58739 8.33408 3.33386 9.07969 3.33398 10C3.33398 10.9204 2.58747 11.6669 1.66699 11.667C0.746436 11.667 0 10.9205 0 10C0.000123888 9.07963 0.746512 8.33398 1.66699 8.33398ZM1.66699 0C2.58747 9.59781e-05 3.33398 0.746577 3.33398 1.66699C3.33381 2.58726 2.58736 3.33291 1.66699 3.33301C0.746544 3.33301 0.000175923 2.58732 0 1.66699C0 0.746518 0.746436 0 1.66699 0Z" fill="#3F4D58"/>
</svg>
