<svg width="24" height="18" viewBox="0 0 24 18" fill="none" xmlns="http://www.w3.org/2000/svg">
<path d="M19 0C20.3256 0.00158786 21.5968 0.528483 22.5342 1.46582C23.4715 2.40316 23.9984 3.6744 24 5V13C23.9984 14.3256 23.4715 15.5968 22.5342 16.5342C21.5968 17.4715 20.3256 17.9984 19 18H5C3.6744 17.9984 2.40316 17.4715 1.46582 16.5342C0.528483 15.5968 0.00158786 14.3256 0 13V5C0.00158786 3.6744 0.528482 2.40316 1.46582 1.46582C2.40316 0.528482 3.6744 0.00158786 5 0H19ZM2 7V13C2 13.7956 2.3163 14.5585 2.87891 15.1211C3.44152 15.6837 4.20435 16 5 16H19C19.7956 16 20.5585 15.6837 21.1211 15.1211C21.6837 14.5585 22 13.7956 22 13V7H2ZM5.5 11C6.32843 11 7 11.6716 7 12.5C7 13.3284 6.32843 14 5.5 14C4.67157 14 4 13.3284 4 12.5C4 11.6716 4.67157 11 5.5 11ZM5 2C4.20435 2 3.44152 2.3163 2.87891 2.87891C2.3163 3.44152 2 4.20435 2 5H22C22 4.20435 21.6837 3.44152 21.1211 2.87891C20.5585 2.3163 19.7956 2 19 2H5Z" fill="#F67001"/>
</svg>
