<svg width="24" height="24" viewBox="0 0 24 24" fill="none" xmlns="http://www.w3.org/2000/svg">
<path d="M7.17578 20.001C8.30797 20.001 9.22629 20.8957 9.22656 22C9.22656 23.1046 8.30813 24 7.17578 24C6.04356 23.9998 5.12598 23.1045 5.12598 22C5.12624 20.8957 6.04373 20.0011 7.17578 20.001ZM17.4277 20.001C18.5599 20.001 19.4773 20.8957 19.4775 22C19.4775 23.1045 18.56 23.9999 17.4277 24C16.2954 24 15.377 23.1046 15.377 22C15.3772 20.8957 16.2955 20.001 17.4277 20.001ZM1.25293 0C2.00593 0.000387642 2.73228 0.270624 3.29492 0.758789C3.85762 1.24704 4.21755 1.91983 4.30566 2.64941L4.34863 3H20.9238C21.3741 2.99953 21.8187 3.09619 22.2266 3.28223C22.6346 3.46836 22.9958 3.73959 23.2842 4.07715C23.573 4.41375 23.7823 4.80811 23.8975 5.23242C24.0126 5.65685 24.0305 6.10121 23.9502 6.5332L23.1455 10.8867C22.9323 12.0404 22.3108 13.0851 21.3887 13.8369C20.4667 14.5885 19.3031 15 18.1016 15H5.88086C6.09236 15.5835 6.48439 16.0892 7.00195 16.4473C7.51947 16.8052 8.13805 16.9983 8.77246 17H19.4775C19.7494 17 20.0109 17.1054 20.2031 17.293C20.3953 17.4805 20.5029 17.7349 20.5029 18C20.5029 18.2651 20.3953 18.5195 20.2031 18.707C20.0109 18.8946 19.7494 19 19.4775 19H8.77246C7.5165 19 6.30369 18.5506 5.36523 17.7363C4.4268 16.9221 3.82809 15.7998 3.68164 14.583L2.27051 2.88281C2.24109 2.63964 2.12118 2.41564 1.93359 2.25293C1.74601 2.09022 1.50394 2.00008 1.25293 2H1.02539C0.753503 2 0.492058 1.89457 0.299805 1.70703C0.107721 1.51952 0 1.26509 0 1C0 0.734908 0.107721 0.48048 0.299805 0.292969C0.492058 0.105432 0.753503 0 1.02539 0H1.25293ZM4.59082 5L5.55566 13H18.1016C18.8233 13.001 19.5221 12.7539 20.0762 12.3027C20.6303 11.8516 21.0048 11.2251 21.1328 10.5322L21.9385 6.17773C21.9652 6.03332 21.9586 5.88499 21.9199 5.74316C21.8812 5.6012 21.8108 5.46891 21.7139 5.35645C21.617 5.24413 21.4959 5.15337 21.3594 5.0918C21.2229 5.03033 21.0741 4.99919 20.9238 5H4.59082Z" fill="#F67001"/>
</svg>
