<svg width="24" height="24" viewBox="0 0 24 24" fill="none" xmlns="http://www.w3.org/2000/svg">
<path d="M1.60459 5.48386L0 3.74513L1.43148 2.19398L3.03708 3.93272C3.2298 4.1324 3.48617 4.24385 3.75282 4.24385C4.01946 4.24385 4.27583 4.1324 4.46855 3.93272L8.09887 0L9.53035 1.55115L5.90003 5.48386C5.618 5.78952 5.28318 6.03198 4.91467 6.1974C4.54616 6.36282 4.15119 6.44796 3.75231 6.44796C3.35343 6.44796 2.95846 6.36282 2.58995 6.1974C2.22144 6.03198 1.88661 5.78952 1.60459 5.48386ZM11.8517 5.35113H24V3.15714H11.8517V5.35113ZM3.75282 15.2241C4.1518 15.2253 4.54704 15.1407 4.91563 14.9752C5.28421 14.8096 5.61881 14.5665 5.90003 14.2598L9.53035 10.3271L8.09887 8.77593L4.46855 12.7086C4.27583 12.9083 4.01946 13.0198 3.75282 13.0198C3.48617 13.0198 3.2298 12.9083 3.03708 12.7086L1.43148 10.9699L0 12.5211L1.60459 14.2598C1.88606 14.5664 2.22085 14.8095 2.58959 14.975C2.95833 15.1405 3.35369 15.2252 3.75282 15.2241ZM11.8517 14.1271H24V11.9331H11.8517V14.1271ZM3.75282 24C4.1518 24.0012 4.54704 23.9166 4.91563 23.7511C5.28421 23.5856 5.61881 23.3424 5.90003 23.0357L9.53035 19.103L8.09887 17.5519L4.46855 21.4846C4.27583 21.6843 4.01946 21.7957 3.75282 21.7957C3.48617 21.7957 3.2298 21.6843 3.03708 21.4846L1.43148 19.7459L0 21.297L1.60459 23.0357C1.88606 23.3424 2.22085 23.5855 2.58959 23.751C2.95833 23.9165 3.35369 24.0011 3.75282 24ZM11.8517 22.903H24V20.709H11.8517V22.903Z" fill="#002B45"/>
</svg>
