<svg width="24" height="24" viewBox="0 0 24 24" fill="none" xmlns="http://www.w3.org/2000/svg">
<mask id="path-1-inside-1_979_671" fill="white">
<path d="M24 10.0001C24 9.92709 23.992 9.85431 23.976 9.78309L22.676 3.91508C22.4345 2.80132 21.8173 1.80447 20.9281 1.09167C20.0389 0.378865 18.9316 -0.00653638 17.792 8.38888e-05H6.208C5.06905 -0.00561641 3.96273 0.380206 3.07433 1.09293C2.18593 1.80565 1.5694 2.802 1.328 3.91508L0.0240014 9.78309C0.00800947 9.85431 -3.96599e-05 9.92709 1.3694e-06 10.0001V11.0001C-0.000805438 11.9737 0.354923 12.9139 1 13.6431V19.0001C1.00159 20.3257 1.52888 21.5965 2.46622 22.5339C3.40356 23.4712 4.67441 23.9985 6 24.0001H18C19.3256 23.9985 20.5964 23.4712 21.5338 22.5339C22.4711 21.5965 22.9984 20.3257 23 19.0001V13.6431C23.6451 12.9139 24.0008 11.9737 24 11.0001V10.0001ZM2 10.1091L3.28 4.34908C3.42504 3.68134 3.79502 3.08366 4.32801 2.65606C4.86101 2.22846 5.52469 1.99689 6.208 2.00008H7V5.00008C7 5.2653 7.10536 5.51965 7.2929 5.70719C7.48043 5.89473 7.73479 6.00008 8 6.00008C8.26522 6.00008 8.51957 5.89473 8.70711 5.70719C8.89464 5.51965 9 5.2653 9 5.00008V2.00008H15V5.00008C15 5.2653 15.1054 5.51965 15.2929 5.70719C15.4804 5.89473 15.7348 6.00008 16 6.00008C16.2652 6.00008 16.5196 5.89473 16.7071 5.70719C16.8946 5.51965 17 5.2653 17 5.00008V2.00008H17.792C18.4753 1.99689 19.139 2.22846 19.672 2.65606C20.205 3.08366 20.575 3.68134 20.72 4.34908L22 10.1091V11.0001C22 11.5305 21.7893 12.0392 21.4142 12.4143C21.0391 12.7894 20.5304 13.0001 20 13.0001H19C18.4696 13.0001 17.9609 12.7894 17.5858 12.4143C17.2107 12.0392 17 11.5305 17 11.0001C17 10.7349 16.8946 10.4805 16.7071 10.293C16.5196 10.1054 16.2652 10.0001 16 10.0001C15.7348 10.0001 15.4804 10.1054 15.2929 10.293C15.1054 10.4805 15 10.7349 15 11.0001C15 11.5305 14.7893 12.0392 14.4142 12.4143C14.0391 12.7894 13.5304 13.0001 13 13.0001H11C10.4696 13.0001 9.96086 12.7894 9.58579 12.4143C9.21072 12.0392 9 11.5305 9 11.0001C9 10.7349 8.89464 10.4805 8.70711 10.293C8.51957 10.1054 8.26522 10.0001 8 10.0001C7.73479 10.0001 7.48043 10.1054 7.2929 10.293C7.10536 10.4805 7 10.7349 7 11.0001C7 11.5305 6.78929 12.0392 6.41422 12.4143C6.03914 12.7894 5.53044 13.0001 5 13.0001H4C3.46957 13.0001 2.96086 12.7894 2.58579 12.4143C2.21072 12.0392 2 11.5305 2 11.0001V10.1091ZM18 22.0001H6C5.20435 22.0001 4.44129 21.684 3.87868 21.1214C3.31607 20.5588 3 19.7957 3 19.0001V14.8731C3.3266 14.9577 3.66263 15.0003 4 15.0001H5C5.56782 15.0004 6.12916 14.8795 6.64651 14.6455C7.16386 14.4115 7.6253 14.0697 8 13.6431C8.3747 14.0697 8.83615 14.4115 9.3535 14.6455C9.87085 14.8795 10.4322 15.0004 11 15.0001H13C13.5678 15.0004 14.1292 14.8795 14.6465 14.6455C15.1639 14.4115 15.6253 14.0697 16 13.6431C16.3747 14.0697 16.8361 14.4115 17.3535 14.6455C17.8708 14.8795 18.4322 15.0004 19 15.0001H20C20.3374 15.0003 20.6734 14.9577 21 14.8731V19.0001C21 19.7957 20.6839 20.5588 20.1213 21.1214C19.5587 21.684 18.7957 22.0001 18 22.0001Z"/>
</mask>
<path d="M24 10.0001L2.66667 9.98809V10.0001H24ZM23.976 9.78308L3.14768 14.3974L3.15424 14.427L3.16089 14.4567L23.976 9.78308ZM22.676 3.91508L1.82731 8.43646L1.83739 8.48295L1.84768 8.5294L22.676 3.91508ZM17.792 8.38888e-05V21.3334H17.854L17.9159 21.3331L17.792 8.38888e-05ZM6.208 8.38888e-05L6.10123 21.3332L6.15462 21.3334H6.208V8.38888e-05ZM1.328 3.91508L22.1533 8.54293L22.1651 8.48977L22.1767 8.43656L1.328 3.91508ZM0.0240014 9.78308L20.8391 14.4567L20.8442 14.4338L20.8493 14.4109L0.0240014 9.78308ZM1.3694e-06 10.0001H21.3333L21.3333 9.98809L1.3694e-06 10.0001ZM1.3694e-06 11.0001L21.3333 11.0178L21.3333 11.0089V11.0001H1.3694e-06ZM1 13.6431H22.3333V5.56134L16.9786 -0.491847L1 13.6431ZM1 19.0001H-20.3333V19.0129L-20.3333 19.0256L1 19.0001ZM6 24.0001L5.97445 45.3334L5.98723 45.3334H6V24.0001ZM18 24.0001V45.3334H18.0128L18.0256 45.3334L18 24.0001ZM23 19.0001L44.3333 19.0256L44.3333 19.0129V19.0001H23ZM23 13.6431L7.02143 -0.491847L1.66667 5.56134V13.6431H23ZM24 11.0001H2.66667V11.0089L2.66668 11.0178L24 11.0001ZM2 10.1091L-18.8253 5.48124L-19.3333 7.76728V10.1091H2ZM3.28 4.34908L24.1053 8.97693L24.1164 8.92717L24.1272 8.87735L3.28 4.34908ZM6.208 2.00008L6.10819 23.3332L6.1581 23.3334H6.208V2.00008ZM7 2.00008H28.3333V-19.3333H7V2.00008ZM9 2.00008V-19.3333H-12.3333V2.00008H9ZM15 2.00008H36.3333V-19.3333H15V2.00008ZM17 2.00008V-19.3333H-4.33333V2.00008H17ZM17.792 2.00008V23.3334H17.8419L17.8918 23.3332L17.792 2.00008ZM20.72 4.34908L-0.1272 8.87735L-0.116379 8.92717L-0.10532 8.97694L20.72 4.34908ZM22 10.1091H43.3333V7.76728L42.8253 5.48123L22 10.1091ZM7 11.0001H28.3333H7ZM2 11.0001H-19.3333H2ZM18 22.0001V43.3334V22.0001ZM6 22.0001V43.3334V22.0001ZM3 19.0001H-18.3333H3ZM3 14.8731L8.3475 -5.77916L-18.3333 -12.6876V14.8731H3ZM4 15.0001V-6.33325H3.99234L3.98467 -6.33324L4 15.0001ZM5 15.0001L5.01122 -6.33325H5V15.0001ZM8 13.6431L24.0289 -0.434774L8 -18.6851L-8.02888 -0.434774L8 13.6431ZM11 15.0001V-6.33325L10.9888 -6.33325L11 15.0001ZM13 15.0001L13.0112 -6.33325H13V15.0001ZM16 13.6431L32.0289 -0.434774L16 -18.6851L-0.0288772 -0.434774L16 13.6431ZM19 15.0001V-6.33325L18.9888 -6.33325L19 15.0001ZM20 15.0001L20.0153 -6.33324L20.0077 -6.33325H20V15.0001ZM21 14.8731H42.3333V-12.6876L15.6525 -5.77916L21 14.8731ZM21 19.0001H42.3333H21ZM24 10.0001L45.3333 10.0121C45.3343 8.36284 45.1524 6.71862 44.7911 5.10952L23.976 9.78308L3.16089 14.4567C2.83159 12.99 2.66583 11.4913 2.66667 9.98809L24 10.0001ZM23.976 9.78308L44.8043 5.16877L43.5043 -0.699232L22.676 3.91508L1.84768 8.5294L3.14768 14.3974L23.976 9.78308ZM22.676 3.91508L43.5247 -0.606295C42.246 -6.50272 38.9788 -11.7802 34.2712 -15.5539L20.9281 1.09167L7.58509 17.7372C4.65585 15.3892 2.62297 12.1054 1.82731 8.43646L22.676 3.91508ZM20.9281 1.09167L34.2712 -15.5539C29.5635 -19.3276 23.7015 -21.3679 17.6681 -21.3329L17.792 8.38888e-05L17.9159 21.3331C14.1618 21.3549 10.5143 20.0853 7.58509 17.7372L20.9281 1.09167ZM17.792 8.38888e-05V-21.3333H6.208V8.38888e-05V21.3334H17.792V8.38888e-05ZM6.208 8.38888e-05L6.31477 -21.333C0.285013 -21.3632 -5.57202 -19.3206 -10.2754 -15.5473L3.07433 1.09293L16.424 17.7332C13.4975 20.081 9.8531 21.3519 6.10123 21.3332L6.208 8.38888e-05ZM3.07433 1.09293L-10.2754 -15.5473C-14.9787 -11.774 -18.2427 -6.49924 -19.5207 -0.606388L1.328 3.91508L22.1767 8.43656C21.3815 12.1032 19.3505 15.3853 16.424 17.7332L3.07433 1.09293ZM1.328 3.91508L-19.4973 -0.712765L-20.8013 5.15524L0.0240014 9.78308L20.8493 14.4109L22.1533 8.54293L1.328 3.91508ZM0.0240014 9.78308L-20.7911 5.10952C-21.1524 6.71865 -21.3343 8.36288 -21.3333 10.0121L1.3694e-06 10.0001L21.3333 9.98809C21.3342 11.4913 21.1684 12.99 20.8391 14.4567L0.0240014 9.78308ZM1.3694e-06 10.0001H-21.3333V11.0001H1.3694e-06H21.3333V10.0001H1.3694e-06ZM1.3694e-06 11.0001L-21.3333 10.9824C-21.3385 17.1694 -19.0779 23.144 -14.9786 27.778L1 13.6431L16.9786 -0.491847C19.7877 2.68371 21.3368 6.77801 21.3333 11.0178L1.3694e-06 11.0001ZM1 13.6431H-20.3333V19.0001H1H22.3333V13.6431H1ZM1 19.0001L-20.3333 19.0256C-20.325 26.0003 -17.5506 32.687 -12.6187 37.6188L2.46622 22.5339L17.5512 7.44892C20.6083 10.5061 22.3281 14.651 22.3333 18.9745L1 19.0001ZM2.46622 22.5339L-12.6187 37.6188C-7.68686 42.5507 -1.00023 45.3251 5.97445 45.3334L6 24.0001L6.02556 2.66677C10.349 2.67195 14.494 4.39174 17.5512 7.44892L2.46622 22.5339ZM6 24.0001V45.3334H18V24.0001V2.66675H6V24.0001ZM18 24.0001L18.0256 45.3334C25.0002 45.3251 31.6869 42.5507 36.6187 37.6188L21.5338 22.5339L6.44884 7.44892C9.50603 4.39174 13.651 2.67195 17.9744 2.66677L18 24.0001ZM21.5338 22.5339L36.6187 37.6188C41.5506 32.687 44.325 26.0003 44.3333 19.0256L23 19.0001L1.66669 18.9745C1.67186 14.651 3.39165 10.5061 6.44884 7.44892L21.5338 22.5339ZM23 19.0001H44.3333V13.6431H23H1.66667V19.0001H23ZM23 13.6431L38.9786 27.778C43.0779 23.144 45.3385 17.1694 45.3333 10.9824L24 11.0001L2.66668 11.0178C2.66316 6.77801 4.21227 2.68371 7.02143 -0.491847L23 13.6431ZM24 11.0001H45.3333V10.0001H24H2.66667V11.0001H24ZM2 10.1091L22.8253 14.7369L24.1053 8.97693L3.28 4.34908L-17.5453 -0.278765L-18.8253 5.48124L2 10.1091ZM3.28 4.34908L24.1272 8.87735C23.2346 12.9867 20.9578 16.6648 17.6777 19.2963L4.32801 2.65606L-9.02167 -13.9842C-13.3677 -10.4975 -16.3845 -5.62403 -17.5672 -0.179186L3.28 4.34908ZM4.32801 2.65606L17.6777 19.2963C14.3976 21.9277 10.3133 23.3529 6.10819 23.3332L6.208 2.00008L6.30781 -19.333C0.736072 -19.3591 -4.67561 -17.4708 -9.02167 -13.9842L4.32801 2.65606ZM6.208 2.00008V23.3334H7V2.00008V-19.3333H6.208V2.00008ZM7 2.00008H-14.3333V5.00008H7H28.3333V2.00008H7ZM7 5.00008H-14.3333C-14.3333 10.9233 -11.9804 16.6038 -7.79205 20.7921L7.2929 5.70719L22.3778 -9.37775C26.1911 -5.56452 28.3333 -0.392666 28.3333 5.00008H7ZM7.2929 5.70719L-7.79205 20.7921C-3.60375 24.9804 2.07681 27.3334 8 27.3334V6.00008V-15.3332C13.3928 -15.3332 18.5646 -13.191 22.3778 -9.37775L7.2929 5.70719ZM8 6.00008V27.3334C13.9232 27.3334 19.6038 24.9804 23.7921 20.7921L8.70711 5.70719L-6.37784 -9.37775C-2.56461 -13.191 2.60725 -15.3332 8 -15.3332V6.00008ZM8.70711 5.70719L23.7921 20.7921C27.9804 16.6038 30.3333 10.9233 30.3333 5.00008H9H-12.3333C-12.3333 -0.392666 -10.1911 -5.56452 -6.37784 -9.37775L8.70711 5.70719ZM9 5.00008H30.3333V2.00008H9H-12.3333V5.00008H9ZM9 2.00008V23.3334H15V2.00008V-19.3333H9V2.00008ZM15 2.00008H-6.33333V5.00008H15H36.3333V2.00008H15ZM15 5.00008H-6.33333C-6.33333 10.9233 -3.98035 16.6038 0.207951 20.7921L15.2929 5.70719L30.3778 -9.37775C34.1911 -5.56452 36.3333 -0.392666 36.3333 5.00008H15ZM15.2929 5.70719L0.207951 20.7921C4.39627 24.9805 10.0768 27.3334 16 27.3334V6.00008V-15.3332C21.3927 -15.3332 26.5646 -13.191 30.3778 -9.37775L15.2929 5.70719ZM16 6.00008V27.3334C21.9232 27.3334 27.6037 24.9805 31.7921 20.7921L16.7071 5.70719L1.62217 -9.37775C5.43541 -13.191 10.6073 -15.3332 16 -15.3332V6.00008ZM16.7071 5.70719L31.7921 20.7921C35.9804 16.6038 38.3333 10.9232 38.3333 5.00008H17H-4.33333C-4.33333 -0.392614 -2.1911 -5.56449 1.62217 -9.37775L16.7071 5.70719ZM17 5.00008H38.3333V2.00008H17H-4.33333V5.00008H17ZM17 2.00008V23.3334H17.792V2.00008V-19.3333H17V2.00008ZM17.792 2.00008L17.8918 23.3332C13.6867 23.3529 9.60238 21.9277 6.32231 19.2963L19.672 2.65606L33.0217 -13.9842C28.6756 -17.4708 23.2639 -19.3591 17.6922 -19.333L17.792 2.00008ZM19.672 2.65606L6.32231 19.2963C3.04222 16.6648 0.765398 12.9867 -0.1272 8.87735L20.72 4.34908L41.5672 -0.179186C40.3845 -5.62402 37.3678 -10.4975 33.0217 -13.9842L19.672 2.65606ZM20.72 4.34908L-0.10532 8.97694L1.17468 14.7369L22 10.1091L42.8253 5.48123L41.5453 -0.278768L20.72 4.34908ZM22 10.1091H0.666671V11.0001H22H43.3333V10.1091H22ZM22 11.0001H0.666671C0.666671 5.87255 2.70358 0.955046 6.32927 -2.67065L21.4142 12.4143L36.4992 27.4992C40.875 23.1234 43.3333 17.1885 43.3333 11.0001H22ZM21.4142 12.4143L6.32927 -2.67065C9.95497 -6.29634 14.8725 -8.33325 20 -8.33325V13.0001V34.3334C26.1884 34.3334 32.1233 31.8751 36.4992 27.4992L21.4142 12.4143ZM20 13.0001V-8.33325H19V13.0001V34.3334H20V13.0001ZM19 13.0001V-8.33325C24.1275 -8.33325 29.045 -6.29634 32.6707 -2.67065L17.5858 12.4143L2.50085 27.4992C6.87668 31.8751 12.8116 34.3334 19 34.3334V13.0001ZM17.5858 12.4143L32.6707 -2.67065C36.2964 0.955046 38.3333 5.87255 38.3333 11.0001H17H-4.33333C-4.33333 17.1885 -1.87499 23.1234 2.50085 27.4992L17.5858 12.4143ZM17 11.0001H38.3333C38.3333 5.07695 35.9804 -0.603628 31.7921 -4.79197L16.7071 10.293L1.62217 25.3779C-2.1911 21.5647 -4.33333 16.3928 -4.33333 11.0001H17ZM16.7071 10.293L31.7921 -4.79197C27.6037 -8.98028 21.9232 -11.3332 16 -11.3332V10.0001V31.3334C10.6073 31.3334 5.43541 29.1912 1.62217 25.3779L16.7071 10.293ZM16 10.0001V-11.3332C10.0768 -11.3332 4.39627 -8.98028 0.207951 -4.79197L15.2929 10.293L30.3778 25.3779C26.5646 29.1912 21.3927 31.3334 16 31.3334V10.0001ZM15.2929 10.293L0.207951 -4.79197C-3.98035 -0.603665 -6.33333 5.0769 -6.33333 11.0001H15H36.3333C36.3333 16.3928 34.1911 21.5647 30.3778 25.3779L15.2929 10.293ZM15 11.0001H-6.33333C-6.33333 5.87255 -4.29642 0.955046 -0.670729 -2.67065L14.4142 12.4143L29.4992 27.4992C33.875 23.1234 36.3333 17.1885 36.3333 11.0001H15ZM14.4142 12.4143L-0.670729 -2.67065C2.95496 -6.29634 7.87247 -8.33325 13 -8.33325V13.0001V34.3334C19.1884 34.3334 25.1233 31.8751 29.4992 27.4992L14.4142 12.4143ZM13 13.0001V-8.33325H11V13.0001V34.3334H13V13.0001ZM11 13.0001V-8.33325C16.1275 -8.33325 21.045 -6.29634 24.6707 -2.67065L9.58579 12.4143L-5.49916 27.4992C-1.12332 31.8751 4.8116 34.3334 11 34.3334V13.0001ZM9.58579 12.4143L24.6707 -2.67065C28.2964 0.955046 30.3333 5.87255 30.3333 11.0001H9H-12.3333C-12.3333 17.1885 -9.87499 23.1234 -5.49916 27.4992L9.58579 12.4143ZM9 11.0001H30.3333C30.3333 5.0769 27.9804 -0.603665 23.7921 -4.79197L8.70711 10.293L-6.37784 25.3779C-10.1911 21.5647 -12.3333 16.3928 -12.3333 11.0001H9ZM8.70711 10.293L23.7921 -4.79197C19.6038 -8.98027 13.9232 -11.3332 8 -11.3332V10.0001V31.3334C2.60725 31.3334 -2.56461 29.1912 -6.37784 25.3779L8.70711 10.293ZM8 10.0001V-11.3332C2.07681 -11.3332 -3.60375 -8.98026 -7.79205 -4.79197L7.2929 10.293L22.3778 25.3779C18.5646 29.1911 13.3928 31.3334 8 31.3334V10.0001ZM7.2929 10.293L-7.79205 -4.79197C-11.9804 -0.603665 -14.3333 5.0769 -14.3333 11.0001H7H28.3333C28.3333 16.3928 26.1911 21.5647 22.3778 25.3779L7.2929 10.293ZM7 11.0001H-14.3333C-14.3333 5.87256 -12.2964 0.955056 -8.67073 -2.67065L6.41422 12.4143L21.4992 27.4992C25.875 23.1234 28.3333 17.1885 28.3333 11.0001H7ZM6.41422 12.4143L-8.67073 -2.67065C-5.04503 -6.29634 -0.127526 -8.33325 5 -8.33325V13.0001V34.3334C11.1884 34.3334 17.1233 31.8751 21.4992 27.4992L6.41422 12.4143ZM5 13.0001V-8.33325H4V13.0001V34.3334H5V13.0001ZM4 13.0001V-8.33325C9.12753 -8.33325 14.045 -6.29634 17.6707 -2.67065L2.58579 12.4143L-12.4992 27.4992C-8.12331 31.8751 -2.18839 34.3334 4 34.3334V13.0001ZM2.58579 12.4143L17.6707 -2.67065C21.2964 0.955056 23.3333 5.87256 23.3333 11.0001H2H-19.3333C-19.3333 17.1885 -16.875 23.1234 -12.4992 27.4992L2.58579 12.4143ZM2 11.0001H23.3333V10.1091H2H-19.3333V11.0001H2ZM18 22.0001V0.666753H6V22.0001V43.3334H18V22.0001ZM6 22.0001V0.666753C10.8623 0.666753 15.5255 2.59829 18.9636 6.03646L3.87868 21.1214L-11.2063 36.2064C-6.64287 40.7697 -0.453593 43.3334 6 43.3334V22.0001ZM3.87868 21.1214L18.9636 6.03646C22.4018 9.47463 24.3333 14.1378 24.3333 19.0001H3H-18.3333C-18.3333 25.4537 -15.7696 31.643 -11.2063 36.2064L3.87868 21.1214ZM3 19.0001H24.3333V14.8731H3H-18.3333V19.0001H3ZM3 14.8731L-2.3475 35.5253C-0.269395 36.0634 1.86871 36.335 4.01533 36.3334L4 15.0001L3.98467 -6.33324C5.45655 -6.3343 6.9226 -6.14811 8.3475 -5.77916L3 14.8731ZM4 15.0001V36.3334H5V15.0001V-6.33325H4V15.0001ZM5 15.0001L4.98878 36.3334C8.59255 36.3353 12.1552 35.568 15.4387 34.0828L6.64651 14.6455L-2.14564 -4.79185C0.103116 -5.80903 2.54309 -6.33454 5.01122 -6.33325L5 15.0001ZM6.64651 14.6455L15.4387 34.0828C18.7221 32.5976 21.6508 30.4286 24.0289 27.7209L8 13.6431L-8.02888 -0.434774C-6.40017 -2.2892 -4.39441 -3.77465 -2.14564 -4.79185L6.64651 14.6455ZM8 13.6431L-8.02888 27.7209C-5.65076 30.4286 -2.72211 32.5976 0.561351 34.0828L9.3535 14.6455L18.1456 -4.79185C20.3944 -3.77466 22.4002 -2.28921 24.0289 -0.434774L8 13.6431ZM9.3535 14.6455L0.561351 34.0828C3.84481 35.568 7.40746 36.3353 11.0112 36.3334L11 15.0001L10.9888 -6.33325C13.4569 -6.33454 15.8969 -5.80903 18.1456 -4.79185L9.3535 14.6455ZM11 15.0001V36.3334H13V15.0001V-6.33325H11V15.0001ZM13 15.0001L12.9888 36.3334C16.5925 36.3353 20.1552 35.568 23.4387 34.0828L14.6465 14.6455L5.85436 -4.79185C8.10312 -5.80903 10.5431 -6.33454 13.0112 -6.33325L13 15.0001ZM14.6465 14.6455L23.4387 34.0828C26.7221 32.5976 29.6508 30.4286 32.0289 27.7209L16 13.6431L-0.0288772 -0.434774C1.59985 -2.28922 3.60561 -3.77466 5.85436 -4.79185L14.6465 14.6455ZM16 13.6431L-0.0288772 27.7209C2.34923 30.4286 5.27787 32.5976 8.56135 34.0828L17.3535 14.6455L26.1456 -4.79185C28.3944 -3.77465 30.4002 -2.2892 32.0289 -0.434774L16 13.6431ZM17.3535 14.6455L8.56135 34.0828C11.8448 35.568 15.4075 36.3353 19.0112 36.3334L19 15.0001L18.9888 -6.33325C21.4569 -6.33454 23.8969 -5.80903 26.1456 -4.79185L17.3535 14.6455ZM19 15.0001V36.3334H20V15.0001V-6.33325H19V15.0001ZM20 15.0001L19.9847 36.3334C22.1313 36.335 24.2694 36.0634 26.3475 35.5253L21 14.8731L15.6525 -5.77916C17.0774 -6.14811 18.5435 -6.3343 20.0153 -6.33324L20 15.0001ZM21 14.8731H-0.33333V19.0001H21H42.3333V14.8731H21ZM21 19.0001H-0.33333C-0.33333 14.1378 1.59821 9.47464 5.03638 6.03646L20.1213 21.1214L35.2063 36.2064C39.7697 31.643 42.3333 25.4537 42.3333 19.0001H21ZM20.1213 21.1214L5.03638 6.03646C8.47455 2.59829 13.1377 0.666753 18 0.666753V22.0001V43.3334C24.4536 43.3334 30.6429 40.7697 35.2063 36.2064L20.1213 21.1214Z" fill="#F67001" mask="url(#path-1-inside-1_979_671)"/>
</svg>
