<svg width="22" height="25" viewBox="0 0 22 25" fill="none" xmlns="http://www.w3.org/2000/svg">
<path fill-rule="evenodd" clip-rule="evenodd" d="M19.0972 4.30962L12.7238 0.697181C11.4715 -0.0318728 9.93608 -0.0318728 8.68374 0.697181L2.31037 4.30962C0.981988 5.05667 0.15474 6.48218 0.149902 8.03252V15.0475C0.153718 15.7059 0.301346 16.3551 0.581995 16.9476V17.0028C-0.0333962 18.35 0.238319 19.9466 1.26254 21.0019L3.67146 23.3439C4.19608 23.8622 4.89727 24.1514 5.62668 24.1504C6.35021 24.1481 7.04565 23.8637 7.5711 23.355L8.57572 22.3718C9.82976 23.0943 11.3617 23.0943 12.6158 22.3718L18.9892 18.7594C20.3175 18.0123 21.1448 16.5868 21.1496 15.0364V8.03252C21.1668 6.50519 20.3839 5.0851 19.0972 4.30962ZM7.5603 21.2229L6.56648 22.195C6.07611 22.6819 5.29608 22.6819 4.8057 22.195L2.42919 19.8751C1.89892 19.3141 1.74556 18.4844 2.03902 17.7641C2.33248 17.0438 3.01656 16.5709 3.77948 16.561C4.28553 16.5655 4.76993 16.7715 5.12977 17.1354L5.6915 17.7099L6.24241 17.1354C6.60226 16.7715 7.08666 16.5655 7.59271 16.561C8.35563 16.5709 9.03971 17.0438 9.33317 17.7641C9.62663 18.4844 9.47327 19.3141 8.943 19.8751L7.5603 21.2229ZM18.2654 17.3564C19.099 16.902 19.6186 16.0135 19.6157 15.0475L19.5725 8.03252C19.5722 7.08779 19.0721 6.21716 18.2654 5.7568L11.9784 2.14436C11.2141 1.70335 10.2799 1.70335 9.51552 2.14436L3.14215 5.7568C2.32711 6.21138 1.81814 7.08312 1.81346 8.03252V15.0364C1.79757 15.2018 1.79757 15.3683 1.81346 15.5336C2.97965 14.7459 4.4929 14.7459 5.65909 15.5336C7.15693 14.4806 9.19562 14.7892 10.3311 16.2406C11.4665 17.6921 11.3133 19.7939 9.98002 21.0572L9.8828 21.1566C10.5488 21.3833 11.2772 21.3152 11.892 20.9688L18.2654 17.3564Z" fill="#F67001"/>
<path d="M15.9969 7.01618L11.2331 9.72274C10.8989 9.92008 10.4871 9.92008 10.1529 9.72274L5.41064 7.01618C5.1482 6.87212 4.83056 6.88219 4.57735 7.04258C4.32414 7.20298 4.17384 7.48934 4.18306 7.79379C4.19229 8.09825 4.35963 8.37454 4.62207 8.5186L9.38589 11.2362C9.54865 11.3186 9.71864 11.3852 9.8936 11.4351V13.998C9.8936 14.4556 10.2563 14.8266 10.7038 14.8266C11.1512 14.8266 11.514 14.4556 11.514 13.998V11.3798C11.6908 11.331 11.8613 11.2605 12.0217 11.1699L16.7855 8.5186C17.0448 8.37804 17.2096 8.10502 17.2161 7.80492C17.2226 7.50483 17.0699 7.22459 16.8169 7.07238C16.5639 6.92017 16.2502 6.9198 15.9969 7.07142V7.01618Z" fill="#F67001"/>
<path fill-rule="evenodd" clip-rule="evenodd" d="M19.0972 4.30962L12.7238 0.697181C11.4715 -0.0318728 9.93608 -0.0318728 8.68374 0.697181L2.31037 4.30962C0.981988 5.05667 0.15474 6.48218 0.149902 8.03252V15.0475C0.153718 15.7059 0.301346 16.3551 0.581995 16.9476V17.0028C-0.0333962 18.35 0.238319 19.9466 1.26254 21.0019L3.67146 23.3439C4.19608 23.8622 4.89727 24.1514 5.62668 24.1504C6.35021 24.1481 7.04565 23.8637 7.5711 23.355L8.57572 22.3718C9.82976 23.0943 11.3617 23.0943 12.6158 22.3718L18.9892 18.7594C20.3175 18.0123 21.1448 16.5868 21.1496 15.0364V8.03252C21.1668 6.50519 20.3839 5.0851 19.0972 4.30962ZM7.5603 21.2229L6.56648 22.195C6.07611 22.6819 5.29608 22.6819 4.8057 22.195L2.42919 19.8751C1.89892 19.3141 1.74556 18.4844 2.03902 17.7641C2.33248 17.0438 3.01656 16.5709 3.77948 16.561C4.28553 16.5655 4.76993 16.7715 5.12977 17.1354L5.6915 17.7099L6.24241 17.1354C6.60226 16.7715 7.08666 16.5655 7.59271 16.561C8.35563 16.5709 9.03971 17.0438 9.33317 17.7641C9.62663 18.4844 9.47327 19.3141 8.943 19.8751L7.5603 21.2229ZM18.2654 17.3564C19.099 16.902 19.6186 16.0135 19.6157 15.0475L19.5725 8.03252C19.5722 7.08779 19.0721 6.21716 18.2654 5.7568L11.9784 2.14436C11.2141 1.70335 10.2799 1.70335 9.51552 2.14436L3.14215 5.7568C2.32711 6.21138 1.81814 7.08312 1.81346 8.03252V15.0364C1.79757 15.2018 1.79757 15.3683 1.81346 15.5336C2.97965 14.7459 4.4929 14.7459 5.65909 15.5336C7.15693 14.4806 9.19562 14.7892 10.3311 16.2406C11.4665 17.6921 11.3133 19.7939 9.98002 21.0572L9.8828 21.1566C10.5488 21.3833 11.2772 21.3152 11.892 20.9688L18.2654 17.3564Z" stroke="#F67001" stroke-width="0.3"/>
<path d="M15.9969 7.01618L11.2331 9.72274C10.8989 9.92008 10.4871 9.92008 10.1529 9.72274L5.41064 7.01618C5.1482 6.87212 4.83056 6.88219 4.57735 7.04258C4.32414 7.20298 4.17384 7.48934 4.18306 7.79379C4.19229 8.09825 4.35963 8.37454 4.62207 8.5186L9.38589 11.2362C9.54865 11.3186 9.71864 11.3852 9.8936 11.4351V13.998C9.8936 14.4556 10.2563 14.8266 10.7038 14.8266C11.1512 14.8266 11.514 14.4556 11.514 13.998V11.3798C11.6908 11.331 11.8613 11.2605 12.0217 11.1699L16.7855 8.5186C17.0448 8.37804 17.2096 8.10502 17.2161 7.80492C17.2226 7.50483 17.0699 7.22459 16.8169 7.07238C16.5639 6.92017 16.2502 6.9198 15.9969 7.07142V7.01618Z" stroke="#F67001" stroke-width="0.3"/>
</svg>
