<svg width="16" height="24" viewBox="0 0 16 24" fill="none" xmlns="http://www.w3.org/2000/svg">
<path d="M16 8.01163C16.0028 6.71744 15.6912 5.4419 15.0918 4.29463C14.4924 3.14735 13.6233 2.16265 12.559 1.42511C11.4947 0.68758 10.2672 0.219275 8.98184 0.0604374C7.69649 -0.0984006 6.39176 0.0569777 5.17976 0.513221C3.96777 0.969465 2.88474 1.71293 2.02374 2.67974C1.16275 3.64655 0.549524 4.80779 0.236765 6.06369C-0.075994 7.31959 -0.0789371 8.63259 0.228189 9.88987C0.535315 11.1472 1.14333 12.3111 1.99998 13.2818V21.5018C1.99997 21.9724 2.13299 22.4334 2.38371 22.8318C2.63444 23.2302 2.99266 23.5497 3.41714 23.7535C3.84162 23.9573 4.31509 24.0372 4.78301 23.9839C5.25093 23.9307 5.69427 23.7464 6.06198 23.4524L7.68798 22.1533C7.77658 22.0826 7.8866 22.0441 7.99998 22.0441C8.11336 22.0441 8.22338 22.0826 8.31198 22.1533L9.93798 23.4524C10.3057 23.7464 10.749 23.9307 11.217 23.9839C11.6849 24.0372 12.1583 23.9573 12.5828 23.7535C13.0073 23.5497 13.3655 23.2302 13.6162 22.8318C13.867 22.4334 14 21.9724 14 21.5018V13.2818C15.2883 11.828 15.9997 9.95346 16 8.01163V8.01163ZM7.99998 2.01601C9.18667 2.01601 10.3467 2.36765 11.3334 3.02646C12.3201 3.68526 13.0891 4.62165 13.5433 5.71721C13.9974 6.81277 14.1162 8.01828 13.8847 9.18132C13.6532 10.3444 13.0817 11.4127 12.2426 12.2512C11.4035 13.0897 10.3344 13.6607 9.17052 13.8921C8.00664 14.1234 6.80024 14.0047 5.70388 13.5509C4.60752 13.0971 3.67045 12.3286 3.01116 11.3426C2.35187 10.3566 1.99998 9.19746 1.99998 8.01163C2.00157 6.42198 2.63422 4.8979 3.75909 3.77384C4.88397 2.64979 6.40917 2.0176 7.99998 2.01601V2.01601ZM11.717 21.9495C11.6324 21.9914 11.5375 22.008 11.4436 21.9973C11.3498 21.9867 11.2611 21.9493 11.188 21.8895L9.56198 20.5905C9.11943 20.2342 8.56825 20.04 7.99998 20.04C7.43171 20.04 6.88053 20.2342 6.43798 20.5905L4.81298 21.8895C4.73961 21.9484 4.6511 21.9853 4.55763 21.9962C4.46417 22.007 4.36954 21.9913 4.28462 21.9508C4.19971 21.9103 4.12795 21.8467 4.07759 21.7673C4.02724 21.6878 4.00034 21.5958 3.99998 21.5018V14.9246C5.21395 15.6326 6.59435 16.0058 7.99998 16.0058C9.40561 16.0058 10.786 15.6326 12 14.9246V21.5018C12.0011 21.5957 11.975 21.688 11.9247 21.7675C11.8745 21.8469 11.8024 21.9101 11.717 21.9495V21.9495Z" fill="#F67001"/>
</svg>
