<svg width="36" height="36" viewBox="0 0 36 36" fill="none" xmlns="http://www.w3.org/2000/svg">
<path d="M18 0C14.4399 0 10.9598 1.05568 7.99974 3.03355C5.03966 5.01141 2.73255 7.82263 1.37018 11.1117C0.00779915 14.4008 -0.348661 18.02 0.345873 21.5116C1.04041 25.0033 2.75474 28.2106 5.27208 30.7279C7.78943 33.2453 10.9967 34.9596 14.4884 35.6541C17.98 36.3487 21.5992 35.9922 24.8883 34.6298C28.1774 33.2674 30.9886 30.9603 32.9665 28.0003C34.9443 25.0402 36 21.5601 36 18C36 13.2261 34.1036 8.64773 30.7279 5.27208C27.3523 1.89642 22.7739 0 18 0ZM22.944 10.338C22.944 10.788 22.782 10.938 22.344 10.938C21.582 10.938 20.817 10.902 20.052 10.971C19.8488 10.9659 19.6478 11.0135 19.4685 11.1091C19.2892 11.2048 19.1378 11.3454 19.029 11.517C18.9132 11.736 18.8534 11.9803 18.855 12.228C18.855 13.017 18.855 13.803 18.855 14.589C18.855 14.763 18.939 14.76 19.062 14.76H22.179C22.641 14.76 22.803 14.919 22.803 15.378C22.803 16.548 22.803 17.718 22.803 18.888C22.803 19.323 22.641 19.488 22.203 19.488H19.122C18.792 19.488 18.822 19.449 18.822 19.77C18.822 22.784 18.822 25.797 18.822 28.809C18.822 29.373 18.681 29.511 18.117 29.511H14.598C14.13 29.511 13.974 29.358 13.974 28.893C13.974 25.845 13.974 22.795 13.974 19.743C13.974 19.539 13.923 19.479 13.716 19.482C12.84 19.482 11.961 19.482 11.085 19.482C10.665 19.482 10.485 19.32 10.485 18.897C10.485 17.712 10.485 16.53 10.485 15.345C10.485 14.928 10.659 14.745 11.085 14.745C11.985 14.745 12.855 14.745 13.737 14.745C13.929 14.745 13.971 14.691 13.971 14.505C13.971 13.569 13.95 12.633 13.971 11.697C13.9888 10.6425 14.3005 9.61397 14.871 8.727C15.2372 8.17216 15.7125 7.6977 16.2679 7.33253C16.8234 6.96736 17.4475 6.71914 18.102 6.603C18.366 6.546 18.633 6.51 18.897 6.462H22.569C22.6923 6.50655 22.7969 6.59165 22.8656 6.70338C22.9342 6.8151 22.963 6.94683 22.947 7.077C22.938 8.181 22.944 9.261 22.944 10.338Z" fill="white"/>
</svg>
