<svg width="36" height="36" viewBox="0 0 36 36" fill="none" xmlns="http://www.w3.org/2000/svg">
<path d="M26.565 12.759C26.4846 11.972 26.1506 11.2324 25.6133 10.6518C25.076 10.0712 24.3644 9.68098 23.586 9.54C22.8533 9.4022 22.1085 9.33887 21.363 9.351C19.374 9.312 17.385 9.315 15.396 9.351C14.4637 9.32624 13.531 9.38447 12.609 9.525C11.022 9.825 9.98701 10.749 9.58201 12.333C9.42913 13.0568 9.35669 13.7953 9.366 14.535C9.31801 16.254 9.32101 17.973 9.33601 19.692C9.3089 20.8801 9.36001 22.0686 9.48901 23.25C9.663 24.45 10.194 25.425 11.262 26.052C11.9308 26.4229 12.6786 26.6286 13.443 26.652C14.943 26.751 16.479 26.733 18 26.736C18.564 26.736 19.131 26.736 19.698 26.736C20.9065 26.7702 22.1159 26.714 23.316 26.568C24.942 26.307 26.016 25.401 26.463 23.787C26.6237 23.1119 26.7032 22.42 26.7 21.726C26.766 19.59 26.748 17.457 26.727 15.321C26.73 14.4643 26.6759 13.6084 26.565 12.759ZM18.021 23.46C16.9433 23.46 15.8897 23.1405 14.9935 22.542C14.0973 21.9434 13.3986 21.0926 12.9858 20.0971C12.573 19.1016 12.4645 18.006 12.6741 16.9489C12.8837 15.8917 13.402 14.9204 14.1634 14.1577C14.9248 13.395 15.8953 12.8752 16.9521 12.6638C18.0089 12.4525 19.1046 12.5592 20.1008 12.9704C21.097 13.3815 21.9489 14.0788 22.549 14.974C23.149 15.8693 23.4702 16.9223 23.472 18C23.4712 19.4463 22.8969 20.8332 21.8751 21.8567C20.8533 22.8803 19.4673 23.4568 18.021 23.46ZM23.721 13.611C23.3844 13.6178 23.059 13.4905 22.8162 13.2573C22.5735 13.0241 22.4333 12.7041 22.4265 12.3675C22.4197 12.0309 22.547 11.7055 22.7802 11.4627C23.0134 11.2199 23.3334 11.0798 23.67 11.073C23.8367 11.0696 24.0023 11.0992 24.1576 11.1598C24.3128 11.2205 24.4546 11.3112 24.5748 11.4266C24.695 11.5421 24.7913 11.6801 24.8581 11.8328C24.925 11.9855 24.9612 12.1499 24.9645 12.3165C24.9678 12.4831 24.9383 12.6488 24.8777 12.8041C24.817 12.9593 24.7263 13.1011 24.6109 13.2213C24.4954 13.3415 24.3574 13.4378 24.2047 13.5046C24.052 13.5715 23.8876 13.6076 23.721 13.611ZM18 0C14.4399 0 10.9598 1.05568 7.99974 3.03355C5.03966 5.01141 2.73255 7.82263 1.37018 11.1117C0.00779915 14.4008 -0.348661 18.02 0.345873 21.5116C1.04041 25.0033 2.75474 28.2106 5.27208 30.7279C7.78943 33.2453 10.9967 34.9596 14.4884 35.6541C17.98 36.3487 21.5992 35.9922 24.8883 34.6298C28.1774 33.2674 30.9886 30.9603 32.9665 28.0003C34.9443 25.0402 36 21.5601 36 18C36 13.2261 34.1036 8.64773 30.7279 5.27208C27.3523 1.89642 22.7739 0 18 0ZM28.593 22.2C28.5776 22.2733 28.5666 22.3474 28.56 22.422C28.5445 22.8425 28.5005 23.2615 28.428 23.676C28.231 24.9808 27.5874 26.1768 26.607 27.06C25.5 28.041 24.165 28.428 22.707 28.536C22.206 28.572 21.702 28.536 21.207 28.617H14.835C14.7081 28.5823 14.5759 28.5711 14.445 28.584C13.5951 28.5872 12.7473 28.4997 11.916 28.323C11.0849 28.148 10.3066 27.7802 9.64378 27.2492C8.98094 26.7182 8.45214 26.0389 8.10001 25.266C7.66469 24.2471 7.44606 23.1489 7.45801 22.041C7.38001 19.755 7.40701 17.472 7.42501 15.186C7.39785 14.1424 7.47929 13.0988 7.66801 12.072C7.82569 11.2107 8.18856 10.4 8.72591 9.7086C9.26325 9.0172 9.95925 8.46544 10.755 8.1C11.7572 7.66209 12.8414 7.44322 13.935 7.458C16.863 7.386 19.791 7.353 22.716 7.494C23.5713 7.51783 24.4143 7.70414 25.2 8.043C27.141 8.922 28.164 10.482 28.482 12.543C28.539 12.909 28.566 13.278 28.608 13.647L28.593 22.2ZM21.555 18.018C21.5532 18.7164 21.3445 19.3987 20.9553 19.9786C20.566 20.5585 20.0136 21.0101 19.3679 21.2763C18.7221 21.5425 18.012 21.6113 17.3272 21.4742C16.6423 21.3371 16.0134 21.0001 15.52 20.5058C15.0265 20.0115 14.6906 19.3821 14.5546 18.697C14.4187 18.0119 14.4887 17.3019 14.756 16.6566C15.0233 16.0113 15.4758 15.4597 16.0564 15.0714C16.6369 14.6831 17.3196 14.4756 18.018 14.475C18.4834 14.4734 18.9446 14.564 19.3748 14.7416C19.8051 14.9191 20.1959 15.1801 20.5247 15.5095C20.8535 15.8389 21.1139 16.2302 21.2907 16.6607C21.4676 17.0913 21.5574 17.5526 21.555 18.018Z" fill="white"/>
</svg>
