<svg width="36" height="36" viewBox="0 0 36 36" fill="none" xmlns="http://www.w3.org/2000/svg">
<path d="M15.63 12.453C15.63 11.9645 15.7749 11.4871 16.0463 11.081C16.3177 10.6749 16.7035 10.3584 17.1549 10.1717C17.6062 9.98487 18.1028 9.93615 18.5818 10.0317C19.0608 10.1272 19.5007 10.3626 19.8459 10.7082C20.1911 11.0538 20.426 11.494 20.5209 11.9732C20.6159 12.4523 20.5665 12.9488 20.3792 13.3999C20.1919 13.851 19.8749 14.2364 19.4685 14.5074C19.0621 14.7783 18.5845 14.9226 18.096 14.922C17.7719 14.922 17.451 14.8581 17.1516 14.734C16.8522 14.6099 16.5802 14.428 16.3512 14.1987C16.1222 13.9694 15.9406 13.6972 15.8169 13.3976C15.6931 13.0981 15.6296 12.7771 15.63 12.453ZM36 18C36 21.5601 34.9443 25.0402 32.9665 28.0003C30.9886 30.9603 28.1774 33.2674 24.8883 34.6298C21.5992 35.9922 17.98 36.3487 14.4884 35.6541C10.9967 34.9596 7.78943 33.2453 5.27208 30.7279C2.75474 28.2106 1.04041 25.0033 0.345873 21.5116C-0.348661 18.02 0.00779915 14.4008 1.37018 11.1117C2.73255 7.82263 5.03966 5.01141 7.99974 3.03355C10.9598 1.05568 14.4399 0 18 0C22.7739 0 27.3523 1.89642 30.7279 5.27208C34.1036 8.64773 36 13.2261 36 18ZM12.129 12.453C12.129 13.6332 12.479 14.7868 13.1346 15.7681C13.7903 16.7494 14.7222 17.5142 15.8125 17.9658C16.9029 18.4174 18.1026 18.5356 19.2601 18.3053C20.4176 18.0751 21.4808 17.5068 22.3153 16.6723C23.1498 15.8378 23.7181 14.7746 23.9483 13.6171C24.1786 12.4596 24.0604 11.2599 23.6088 10.1695C23.1572 9.0792 22.3924 8.14728 21.4111 7.49162C20.4298 6.83596 19.2762 6.486 18.096 6.486C16.5135 6.486 14.9957 7.11466 13.8767 8.23369C12.7577 9.35272 12.129 10.8705 12.129 12.453ZM24.351 19.2C24.2178 19.0337 24.0531 18.8954 23.8663 18.7929C23.6796 18.6904 23.4744 18.6257 23.2627 18.6026C23.0509 18.5794 22.8366 18.5983 22.6321 18.6581C22.4276 18.7179 22.237 18.8174 22.071 18.951C20.8717 19.7505 19.4561 20.1631 18.015 20.133C16.5661 20.161 15.1424 19.7523 13.929 18.96C13.5936 18.6911 13.1652 18.5664 12.7379 18.6134C12.3106 18.6603 11.9194 18.8751 11.6505 19.2105C11.3816 19.5459 11.2569 19.9743 11.3039 20.4016C11.3508 20.8289 11.5656 21.2201 11.901 21.489C13.0981 22.3488 14.4729 22.929 15.924 23.187L12.501 26.763C12.3531 26.9164 12.2368 27.0975 12.1589 27.2959C12.0809 27.4943 12.0428 27.7061 12.0467 27.9192C12.0506 28.1323 12.0964 28.3426 12.1816 28.538C12.2667 28.7334 12.3896 28.9101 12.543 29.058C12.6965 29.2059 12.8775 29.3222 13.0759 29.4001C13.2743 29.4781 13.4861 29.5162 13.6992 29.5123C13.9123 29.5084 14.1226 29.4626 14.318 29.3774C14.5134 29.2923 14.6901 29.1694 14.838 29.016L18.015 25.629L21.516 29.037C21.6644 29.1973 21.8437 29.3261 22.0431 29.4155C22.2425 29.5049 22.4578 29.5531 22.6763 29.5572C22.8947 29.5614 23.1118 29.5213 23.3144 29.4396C23.517 29.3578 23.7011 29.236 23.8555 29.0814C24.0099 28.9268 24.1314 28.7426 24.2129 28.5399C24.2944 28.3371 24.3342 28.12 24.3297 27.9016C24.3253 27.6831 24.2768 27.4678 24.1872 27.2686C24.0975 27.0693 23.9685 26.8902 23.808 26.742L20.208 23.169C21.6168 22.9062 22.9492 22.3322 24.108 21.489C24.2751 21.3553 24.4141 21.1897 24.5168 21.002C24.6196 20.8143 24.6842 20.608 24.7068 20.3952C24.7293 20.1823 24.7095 19.9671 24.6485 19.762C24.5874 19.5568 24.4863 19.3658 24.351 19.2Z" fill="white"/>
</svg>
