<svg width="36" height="36" viewBox="0 0 36 36" fill="none" xmlns="http://www.w3.org/2000/svg">
<path d="M21.552 18.09C21.552 18.231 21.456 18.297 21.345 18.348L19.827 19.08L15.426 21.18C15.051 21.357 14.922 21.276 14.922 20.88V15.141C14.922 14.727 15.057 14.649 15.426 14.841L21.279 17.805L21.36 17.847C21.459 17.898 21.552 17.958 21.552 18.09ZM36 18C36 21.5601 34.9443 25.0402 32.9665 28.0003C30.9886 30.9603 28.1774 33.2674 24.8883 34.6298C21.5992 35.9922 17.98 36.3487 14.4884 35.6541C10.9967 34.9596 7.78943 33.2453 5.27208 30.7279C2.75474 28.2106 1.04041 25.0033 0.345873 21.5116C-0.348661 18.02 0.00779915 14.4008 1.37018 11.1117C2.73255 7.82263 5.03966 5.01141 7.99974 3.03355C10.9598 1.05568 14.4399 0 18 0C22.7739 0 27.3523 1.89642 30.7279 5.27208C34.1036 8.64773 36 13.2261 36 18ZM29.367 14.1C29.2669 13.4261 29.0322 12.7793 28.677 12.198C28.274 11.5346 27.7117 10.9824 27.0411 10.5916C26.3705 10.2007 25.6128 9.98364 24.837 9.96C24.333 9.93 23.832 9.939 23.337 9.939H11.736C10.8954 9.90149 10.0585 10.0726 9.30001 10.437C7.63801 11.316 6.71101 12.693 6.67201 14.574C6.62701 16.857 6.65101 19.14 6.67201 21.423C6.69318 22.5353 7.10666 23.6044 7.83946 24.4415C8.57226 25.2786 9.57725 25.8299 10.677 25.998C11.0132 26.0424 11.3519 26.0644 11.691 26.064H24.348C25.4418 26.1067 26.5195 25.7906 27.417 25.164C28.4165 24.4505 29.0962 23.3733 29.31 22.164C29.31 22.077 29.346 21.99 29.367 21.906V14.1Z" fill="white"/>
</svg>
