<svg width="12" height="12" viewBox="0 0 12 12" fill="none" xmlns="http://www.w3.org/2000/svg">
<path d="M1.91327 6.60887C1.83487 6.52919 1.77264 6.4344 1.73017 6.32995C1.68771 6.22551 1.66585 6.11348 1.66585 6.00033C1.66585 5.88719 1.68771 5.77516 1.73017 5.67071C1.77264 5.56627 1.83487 5.47147 1.91327 5.3918L5.75258 1.46631C5.83098 1.38663 5.89321 1.29184 5.93567 1.18739C5.97814 1.08295 6 0.970919 6 0.857773C6 0.744626 5.97814 0.632599 5.93567 0.528154C5.89321 0.42371 5.83098 0.328914 5.75258 0.249236C5.59586 0.0896018 5.38386 0 5.16288 0C4.9419 0 4.7299 0.0896018 4.57318 0.249236L0.733869 4.18329C0.263949 4.66541 0 5.31894 0 6.00033C0 6.68172 0.263949 7.33525 0.733869 7.81737L4.57318 11.7514C4.72898 11.9098 4.93926 11.999 5.1587 12C5.26878 12.0006 5.37791 11.979 5.47982 11.9364C5.58173 11.8937 5.67442 11.8309 5.75258 11.7514C5.83098 11.6718 5.89321 11.577 5.93567 11.4725C5.97814 11.3681 6 11.256 6 11.1429C6 11.0297 5.97814 10.9177 5.93567 10.8133C5.89321 10.7088 5.83098 10.614 5.75258 10.5344L1.91327 6.60887Z" fill="#F67001"/>
</svg>
