<svg width="12" height="12" viewBox="0 0 12 12" fill="none" xmlns="http://www.w3.org/2000/svg">
<path d="M11.2661 4.18313L7.42682 0.249227C7.2701 0.0895983 7.0581 0 6.83712 0C6.61614 0 6.40414 0.0895983 6.24742 0.249227C6.16902 0.328901 6.10679 0.423693 6.06433 0.528134C6.02186 0.632574 6 0.744597 6 0.857739C6 0.970881 6.02186 1.0829 6.06433 1.18734C6.10679 1.29179 6.16902 1.38658 6.24742 1.46625L10.0951 5.39159C10.1735 5.47126 10.2357 5.56605 10.2782 5.67049C10.3207 5.77493 10.3425 5.88696 10.3425 6.0001C10.3425 6.11324 10.3207 6.22526 10.2782 6.3297C10.2357 6.43414 10.1735 6.52894 10.0951 6.60861L6.24742 10.5339C6.08991 10.6942 6.00099 10.912 6.0002 11.1394C5.99942 11.3669 6.08684 11.5853 6.24324 11.7467C6.39964 11.9081 6.6122 11.9992 6.83416 12C7.05613 12.0008 7.26931 11.9112 7.42682 11.751L11.2661 7.81706C11.736 7.33497 12 6.68146 12 6.0001C12 5.31873 11.736 4.66523 11.2661 4.18313Z" fill="#F67001"/>
</svg>
