<svg width="16" height="16" viewBox="0 0 16 16" fill="none" xmlns="http://www.w3.org/2000/svg">
<path d="M9.81687 10.2661L13.7508 6.42682C13.9104 6.2701 14 6.0581 14 5.83712C14 5.61614 13.9104 5.40414 13.7508 5.24742C13.6711 5.16902 13.5763 5.10679 13.4719 5.06433C13.3674 5.02186 13.2554 5 13.1423 5C13.0291 5 12.9171 5.02186 12.8127 5.06433C12.7082 5.10679 12.6134 5.16902 12.5337 5.24742L8.60841 9.0951C8.52874 9.1735 8.43395 9.23572 8.32951 9.27819C8.22507 9.32066 8.11304 9.34252 7.9999 9.34252C7.88676 9.34252 7.77474 9.32066 7.6703 9.27819C7.56586 9.23572 7.47106 9.1735 7.39139 9.0951L3.46605 5.24742C3.3058 5.08991 3.08801 5.00099 2.86057 5.0002C2.63314 4.99942 2.4147 5.08684 2.25332 5.24324C2.09193 5.39964 2.00081 5.6122 2.00001 5.83416C1.9992 6.05613 2.08878 6.26931 2.24903 6.42682L6.18294 10.2661C6.66503 10.736 7.31854 11 7.9999 11C8.68127 11 9.33477 10.736 9.81687 10.2661Z" fill="#F67001"/>
</svg>
