<svg width="20" height="20" viewBox="0 0 20 20" fill="none" xmlns="http://www.w3.org/2000/svg">
<path d="M15.7208 4.27916C15.542 4.10042 15.2996 4 15.0467 4C14.7939 4 14.5514 4.10042 14.3726 4.27916L10 8.65179L5.62737 4.27916C5.44857 4.10042 5.2061 4 4.95327 4C4.70044 4 4.45797 4.10042 4.27916 4.27916C4.10042 4.45797 4 4.70044 4 4.95327C4 5.2061 4.10042 5.44857 4.27916 5.62737L8.65179 10L4.27916 14.3726C4.10042 14.5514 4 14.7939 4 15.0467C4 15.2996 4.10042 15.542 4.27916 15.7208C4.45797 15.8996 4.70044 16 4.95327 16C5.2061 16 5.44857 15.8996 5.62737 15.7208L10 11.3482L14.3726 15.7208C14.5514 15.8996 14.7939 16 15.0467 16C15.2996 16 15.542 15.8996 15.7208 15.7208C15.8996 15.542 16 15.2996 16 15.0467C16 14.7939 15.8996 14.5514 15.7208 14.3726L11.3482 10L15.7208 5.62737C15.8996 5.44857 16 5.2061 16 4.95327C16 4.70044 15.8996 4.45797 15.7208 4.27916Z" fill="#3F4D58"/>
</svg>
