<svg width="16" height="16" viewBox="0 0 16 16" fill="none" xmlns="http://www.w3.org/2000/svg">
<path fill-rule="evenodd" clip-rule="evenodd" d="M2 0C2.17671 0 2.34668 0.0704153 2.47168 0.195312C2.59666 0.320298 2.66695 0.490241 2.66699 0.666992V2.04883C4.13099 0.731405 6.03052 0.00244296 8 0.000976562C9.5821 0.000976562 11.1288 0.469736 12.4443 1.34863C13.7599 2.2277 14.7861 3.47762 15.3916 4.93945C15.997 6.40117 16.1553 8.0098 15.8467 9.56152C15.538 11.1132 14.7759 12.5385 13.6572 13.6572C12.5384 14.7761 11.1124 15.538 9.56055 15.8467C8.00881 16.1553 6.40018 15.9971 4.93848 15.3916C3.47685 14.7861 2.22762 13.7608 1.34863 12.4453C0.469649 11.1298 7.29997e-05 9.58312 0 8.00098C0 7.82423 0.0703804 7.65431 0.195312 7.5293C0.320337 7.40427 0.490181 7.33398 0.666992 7.33398C0.843774 7.33401 1.01367 7.40429 1.13867 7.5293C1.26355 7.6543 1.33398 7.82427 1.33398 8.00098C1.33165 9.5427 1.86388 11.0378 2.84082 12.2305C3.81776 13.4231 5.1785 14.2397 6.69043 14.541C8.20244 14.8422 9.77239 14.609 11.1318 13.8818C12.4914 13.1545 13.5569 11.9778 14.1455 10.5527C14.734 9.12782 14.8092 7.54292 14.3594 6.06836C13.9094 4.59363 12.9617 3.32048 11.6777 2.4668C10.3938 1.61314 8.85327 1.23111 7.31934 1.38672C5.78548 1.54238 4.35289 2.22624 3.2666 3.32031C3.28852 3.32631 3.3115 3.33065 3.33398 3.33398H5.33398C5.51062 3.33409 5.67976 3.40441 5.80469 3.5293C5.92971 3.65432 6 3.82416 6 4.00098C5.99989 4.17764 5.92961 4.34675 5.80469 4.47168C5.67976 4.5966 5.51065 4.66689 5.33398 4.66699H3.33398C2.80355 4.66699 2.29402 4.45613 1.91895 4.08105C1.54412 3.70601 1.33398 3.19725 1.33398 2.66699V0.666992C1.33403 0.490241 1.40431 0.320298 1.5293 0.195312C1.65422 0.0706246 1.82349 6.50361e-05 2 0ZM8 4.00098C8.17681 4.00098 8.34665 4.07126 8.47168 4.19629C8.59652 4.32122 8.6669 4.49038 8.66699 4.66699V7.72461L10.4717 9.5293C10.593 9.65496 10.6606 9.82336 10.6592 9.99805C10.6577 10.1727 10.5873 10.3403 10.4639 10.4639C10.3403 10.5874 10.1728 10.6576 9.99805 10.6592C9.82325 10.6607 9.65503 10.5931 9.5293 10.4717L7.5293 8.47168C7.40434 8.34675 7.33409 8.17767 7.33398 8.00098V4.66699C7.33408 4.4903 7.40435 4.32123 7.5293 4.19629C7.65425 4.07135 7.82331 4.00105 8 4.00098Z" fill="#3F4D58"/>
</svg>
