<svg width="24" height="24" viewBox="0 0 24 24" fill="none" xmlns="http://www.w3.org/2000/svg">
<path d="M7.33301 16.5C8.15135 16.5 8.94753 16.7696 9.59766 17.2666C10.2475 17.7636 10.7161 18.4605 10.9307 19.25H22.999C23.2642 19.25 23.5185 19.3555 23.7061 19.543C23.8935 19.7305 23.999 19.9848 23.999 20.25C23.999 20.5152 23.8935 20.7695 23.7061 20.957C23.5185 21.1446 23.2642 21.25 22.999 21.25H10.9307C10.716 22.0397 10.2477 22.7373 9.59766 23.2344C8.94753 23.7314 8.15135 24 7.33301 24C6.51484 24 5.71936 23.7312 5.06934 23.2344C4.41921 22.7373 3.95096 22.0397 3.73633 21.25H1C0.734795 21.25 0.480497 21.1446 0.292969 20.957C0.105492 20.7695 0 20.5152 0 20.25C4.75194e-05 19.9848 0.105483 19.7305 0.292969 19.543C0.480488 19.3555 0.734841 19.25 1 19.25H3.73633C3.95099 18.4604 4.4193 17.7636 5.06934 17.2666C5.71941 16.7696 6.51473 16.5 7.33301 16.5ZM8.00195 18.6338C7.68225 18.5014 7.33059 18.4667 6.99121 18.5342C6.65192 18.6017 6.34036 18.7681 6.0957 19.0127C5.85097 19.2574 5.68373 19.5697 5.61621 19.9092C5.5488 20.2485 5.58343 20.6003 5.71582 20.9199C5.84824 21.2396 6.07266 21.5128 6.36035 21.7051C6.64813 21.8974 6.98691 22 7.33301 22C7.79676 21.9991 8.24141 21.8143 8.56934 21.4863C8.89717 21.1583 9.08222 20.7138 9.08301 20.25C9.08297 19.9041 8.98015 19.566 8.78809 19.2783C8.5958 18.9905 8.32171 18.7662 8.00195 18.6338ZM16.666 8.24805C17.4844 8.24805 18.2806 8.51741 18.9307 9.01465C19.5806 9.51186 20.0484 10.2092 20.2627 10.999H22.999C23.2642 10.999 23.5185 11.1045 23.7061 11.292C23.8936 11.4795 23.999 11.7338 23.999 11.999C23.999 12.2642 23.8936 12.5185 23.7061 12.7061C23.5185 12.8936 23.2642 12.999 22.999 12.999H20.2627C20.0484 13.7888 19.5806 14.4862 18.9307 14.9834C18.2806 15.4806 17.4844 15.75 16.666 15.75C15.8477 15.7499 15.0523 15.4805 14.4023 14.9834C13.7523 14.4862 13.2836 13.7889 13.0693 12.999H1C0.734812 12.999 0.480494 12.8936 0.292969 12.7061C0.105454 12.5185 1.56741e-05 12.2642 0 11.999C0 11.7338 0.105454 11.4795 0.292969 11.292C0.480497 11.1045 0.734795 10.999 1 10.999H13.0693C13.2836 10.2091 13.7523 9.51189 14.4023 9.01465C15.0523 8.51748 15.8477 8.24811 16.666 8.24805ZM17.3359 10.3818C17.0163 10.2495 16.6645 10.2148 16.3252 10.2822C15.9857 10.3498 15.6734 10.517 15.4287 10.7617C15.1842 11.0063 15.0177 11.318 14.9502 11.6572C14.8827 11.9967 14.9174 12.3492 15.0498 12.6689C15.1823 12.9886 15.4067 13.2619 15.6943 13.4541C15.982 13.6463 16.3201 13.749 16.666 13.749C17.13 13.7485 17.5753 13.5634 17.9033 13.2354C18.2312 12.9073 18.4155 12.4628 18.416 11.999C18.416 11.6529 18.3134 11.3142 18.1211 11.0264C17.9288 10.7387 17.6556 10.5142 17.3359 10.3818ZM7.33301 0C8.15135 0 8.94753 0.269566 9.59766 0.766602C10.2475 1.26358 10.7161 1.96051 10.9307 2.75H22.999C23.2642 2.75 23.5185 2.8555 23.7061 3.04297C23.8935 3.23045 23.999 3.48487 23.999 3.75C23.999 4.01515 23.8935 4.26951 23.7061 4.45703C23.5185 4.64457 23.2642 4.75 22.999 4.75H10.9307C10.7161 5.53967 10.2477 6.23735 9.59766 6.73438C8.94753 7.23141 8.15135 7.50098 7.33301 7.50098C6.51483 7.50094 5.71937 7.23126 5.06934 6.73438C4.41921 6.23734 3.95096 5.53973 3.73633 4.75H1C0.734795 4.75 0.480497 4.64457 0.292969 4.45703C0.105515 4.26951 0 4.01516 0 3.75C6.68881e-05 3.48487 0.1055 3.23045 0.292969 3.04297C0.480484 2.85552 0.734857 2.75 1 2.75H3.73633C3.951 1.96042 4.41931 1.26356 5.06934 0.766602C5.71941 0.269607 6.51473 3.97723e-05 7.33301 0ZM7.33301 2C6.86906 2.00053 6.42376 2.1856 6.0957 2.51367C5.76785 2.84166 5.5836 3.28623 5.58301 3.75C5.58301 4.09612 5.68565 4.43487 5.87793 4.72266C6.07021 5.01033 6.34341 5.23477 6.66309 5.36719C6.98273 5.49957 7.3345 5.53424 7.67383 5.4668C8.01328 5.39927 8.32558 5.23205 8.57031 4.9873C8.81484 4.74265 8.98131 4.43106 9.04883 4.0918C9.11635 3.75233 9.08167 3.39985 8.94922 3.08008C8.81675 2.76051 8.59232 2.48712 8.30469 2.29492C8.01706 2.1028 7.67889 2.00006 7.33301 2Z" fill="white"/>
</svg>
