<svg width="8" height="13" viewBox="0 0 8 13" fill="none" xmlns="http://www.w3.org/2000/svg">
<path d="M1.78523e-05 12.008V0.991957C-0.00120112 0.796069 0.0600292 0.604279 0.175902 0.44104C0.291775 0.277801 0.457039 0.150509 0.650627 0.0753915C0.844215 0.000274286 1.05735 -0.0192642 1.26287 0.0192671C1.46839 0.0577984 1.65697 0.152654 1.80457 0.29174L7.69313 5.80471C7.88968 5.9895 8 6.23945 8 6.5C8 6.76055 7.88968 7.01051 7.69313 7.19529L1.80457 12.7083C1.65697 12.8473 1.46839 12.9422 1.26287 12.9807C1.05735 13.0193 0.844215 12.9997 0.650627 12.9246C0.457039 12.8495 0.291775 12.7222 0.175902 12.559C0.0600292 12.3957 -0.00120112 12.2039 1.78523e-05 12.008Z" fill="#F67001"/>
</svg>
