<svg width="24" height="19" viewBox="0 0 24 19" fill="none" xmlns="http://www.w3.org/2000/svg">
<path d="M19.001 0C20.3264 0.00148262 21.597 0.457194 22.5342 1.2666C23.4714 2.0761 23.9994 3.17359 24.001 4.31836V14.6816C23.9994 15.8264 23.4715 16.9239 22.5342 17.7334C21.597 18.5428 20.3264 18.9985 19.001 19H5.00098C3.67539 18.9986 2.40413 18.5429 1.4668 17.7334C0.52947 16.9239 0.00159991 15.8264 0 14.6816L0.000976562 4.31836C0.00256435 3.17359 0.529532 2.0761 1.4668 1.2666C2.40413 0.457094 3.67538 0.00137131 5.00098 0H19.001ZM15.5361 11.1924C14.5976 12.0008 13.3265 12.455 12.001 12.4551C10.6753 12.4551 9.40346 12.0009 8.46484 11.1924L2.00098 5.61328V14.6816C2.00099 15.3687 2.31639 16.0278 2.87891 16.5137C3.44152 16.9996 4.20533 17.2725 5.00098 17.2725H19.001C19.7964 17.2723 20.5596 16.9995 21.1221 16.5137C21.6846 16.0278 22.001 15.3687 22.001 14.6816V5.61328L15.5361 11.1924ZM5.00098 1.72754C4.40219 1.72856 3.81672 1.88438 3.32129 2.1748C2.82618 2.46513 2.44283 2.87653 2.2207 3.35645L9.87891 9.97168C10.4424 10.4562 11.2057 10.7285 12.001 10.7285C12.796 10.7284 13.5587 10.4561 14.1221 9.97168L21.7803 3.35645C21.5581 2.87653 21.1748 2.46513 20.6797 2.1748C20.1844 1.88446 19.5996 1.72864 19.001 1.72754H5.00098Z" fill="white"/>
</svg>
