<svg width="20" height="20" viewBox="0 0 20 20" fill="none" xmlns="http://www.w3.org/2000/svg">
<path d="M16.6676 10.5834C16.5387 12.1033 15.8923 13.5335 14.8359 14.6369C13.7794 15.7402 12.3762 16.4503 10.8592 16.6494C9.34222 16.8484 7.80254 16.5244 6.49564 15.7312C5.18873 14.938 4.19315 13.7231 3.67407 12.2883C3.15499 10.8534 3.14362 9.28477 3.64183 7.84258C4.14004 6.40039 5.11789 5.17134 6.41315 4.35935C7.70842 3.54736 9.24323 3.20123 10.763 3.37839C12.2827 3.55555 13.696 4.24535 14.7684 5.33335H12.6805C12.5032 5.33335 12.3331 5.40359 12.2076 5.52861C12.0822 5.65364 12.0118 5.82321 12.0118 6.00002C12.0118 6.17683 12.0822 6.3464 12.2076 6.47143C12.3331 6.59645 12.5032 6.66669 12.6805 6.66669H15.4512C15.7805 6.66651 16.0963 6.53602 16.3291 6.30389C16.562 6.07176 16.6929 5.75697 16.6931 5.42868V2.66667C16.6931 2.48986 16.6226 2.32029 16.4972 2.19526C16.3718 2.07024 16.2017 2 16.0243 2C15.8469 2 15.6768 2.07024 15.5514 2.19526C15.426 2.32029 15.3555 2.48986 15.3555 2.66667V4.05201C14.0105 2.85382 12.2993 2.14299 10.4987 2.03447C8.69813 1.92596 6.91349 2.42611 5.4334 3.45403C3.95332 4.48195 2.86434 5.97754 2.34259 7.6989C1.82084 9.42027 1.89683 11.2668 2.55827 12.9397C3.21971 14.6127 4.42792 16.0144 5.98749 16.918C7.54706 17.8216 9.3668 18.1743 11.1524 17.9191C12.938 17.6639 14.585 16.8158 15.8271 15.5118C17.0693 14.2078 17.8338 12.5242 17.9971 10.7334C18.0058 10.6405 17.9949 10.5469 17.9652 10.4585C17.9356 10.3701 17.8878 10.2888 17.8249 10.2198C17.762 10.1508 17.6853 10.0956 17.5998 10.0578C17.5143 10.02 17.4219 10.0003 17.3284 10C17.1652 9.99808 17.0072 10.0567 16.885 10.1646C16.7629 10.2724 16.6854 10.4217 16.6676 10.5834Z" fill="white"/>
</svg>
