<svg width="36" height="36" viewBox="0 0 36 36" fill="none" xmlns="http://www.w3.org/2000/svg">
<path d="M18 0C14.4399 0 10.9598 1.05568 7.99974 3.03355C5.03966 5.01141 2.73255 7.82263 1.37018 11.1117C0.00779915 14.4008 -0.348661 18.02 0.345873 21.5116C1.04041 25.0033 2.75474 28.2106 5.27208 30.7279C7.78943 33.2453 10.9967 34.9596 14.4884 35.6541C17.98 36.3487 21.5992 35.9922 24.8883 34.6298C28.1774 33.2674 30.9886 30.9603 32.9665 28.0003C34.9443 25.0402 36 21.5601 36 18C36 13.2261 34.1036 8.64773 30.7279 5.27208C27.3523 1.89642 22.7739 0 18 0ZM13.5 26.568C13.5 26.91 13.5 26.91 13.161 26.91C12.012 26.91 10.863 26.91 9.71401 26.91C9.48001 26.91 9.39301 26.85 9.39301 26.61C9.39301 22.466 9.39301 18.322 9.39301 14.178C9.39301 13.878 9.40801 13.854 9.71401 13.854H13.155C13.485 13.854 13.488 13.854 13.488 14.181V26.568H13.5ZM11.457 12.123C10.9889 12.1259 10.5305 11.9902 10.1394 11.7329C9.7484 11.4756 9.44232 11.1082 9.25979 10.6772C9.07727 10.2461 9.02648 9.7707 9.11382 9.31083C9.20116 8.85096 9.42272 8.42725 9.75057 8.09314C10.0784 7.75903 10.4979 7.52948 10.956 7.43345C11.4141 7.33742 11.8904 7.37921 12.3249 7.55354C12.7593 7.72788 13.1323 8.02695 13.397 8.41304C13.6617 8.79913 13.8061 9.25494 13.812 9.723C13.8121 10.3518 13.5654 10.9555 13.125 11.4043C12.6846 11.8532 12.0857 12.1112 11.457 12.123ZM28.611 26.64C28.611 26.838 28.536 26.901 28.347 26.901C27.147 26.901 25.971 26.901 24.78 26.901C24.528 26.901 24.504 26.772 24.504 26.574C24.504 24.402 24.504 22.23 24.504 20.058C24.5127 19.518 24.444 18.9795 24.3 18.459C24 17.4 23.241 17.1 22.281 17.124C22.1307 17.131 21.9812 17.15 21.834 17.181C20.934 17.37 20.385 17.967 20.19 18.963C20.0918 19.5487 20.0486 20.1423 20.061 20.736C20.046 22.68 20.061 24.621 20.061 26.562C20.061 26.91 20.061 26.91 19.725 26.91C18.576 26.91 17.427 26.91 16.278 26.91C16.053 26.91 15.978 26.847 15.978 26.61C15.978 22.458 15.978 18.305 15.978 14.151C15.978 13.908 16.053 13.851 16.278 13.851C17.388 13.851 18.498 13.851 19.608 13.851C19.821 13.851 19.908 13.914 19.908 14.136C19.908 14.601 19.908 15.069 19.908 15.534C20.2228 15.0459 20.6339 14.6273 21.1163 14.3039C21.5986 13.9804 22.142 13.7589 22.713 13.653C23.9006 13.3987 25.1384 13.529 26.247 14.025C26.6936 14.2349 27.0921 14.5349 27.4173 14.9061C27.7425 15.2773 27.9876 15.7117 28.137 16.182C28.3942 16.8994 28.5389 17.6523 28.566 18.414C28.671 21.156 28.581 23.898 28.611 26.64Z" fill="white"/>
</svg>
