<svg width="36" height="36" viewBox="0 0 36 36" fill="none" xmlns="http://www.w3.org/2000/svg">
<path d="M18 0C14.4399 0 10.9598 1.05568 7.99974 3.03355C5.03966 5.01141 2.73255 7.82263 1.37018 11.1117C0.00779915 14.4008 -0.348661 18.02 0.345873 21.5116C1.04041 25.0033 2.75474 28.2106 5.27208 30.7279C7.78943 33.2453 10.9967 34.9596 14.4884 35.6541C17.98 36.3487 21.5992 35.9922 24.8883 34.6298C28.1774 33.2674 30.9886 30.9603 32.9665 28.0003C34.9443 25.0402 36 21.5601 36 18C36 13.2261 34.1036 8.64773 30.7279 5.27208C27.3523 1.89642 22.7739 0 18 0ZM25.953 19.515C26.235 19.839 26.553 20.133 26.853 20.415C27.7122 21.1691 28.4677 22.0336 29.1 22.986C29.188 23.1228 29.2538 23.2726 29.295 23.43C29.439 24.009 29.19 24.351 28.599 24.402C28.098 24.447 27.594 24.435 27.099 24.447C26.457 24.462 25.812 24.486 25.17 24.486C24.6326 24.4713 24.1155 24.2781 23.7 23.937C23.2371 23.5556 22.814 23.1285 22.437 22.662C22.1614 22.3234 21.8551 22.0111 21.522 21.729C21.4199 21.6426 21.307 21.57 21.186 21.513C21.0803 21.4584 20.9599 21.4389 20.8424 21.4573C20.7248 21.4756 20.6161 21.5308 20.532 21.615C20.1791 21.9801 19.9749 22.4635 19.959 22.971C19.932 23.199 19.935 23.43 19.92 23.658C19.9266 23.7535 19.9135 23.8493 19.8815 23.9395C19.8495 24.0298 19.7993 24.1125 19.7341 24.1825C19.6688 24.2525 19.5899 24.3084 19.5021 24.3467C19.4144 24.385 19.3197 24.4048 19.224 24.405C17.271 24.564 15.42 24.33 13.743 23.169C12.649 22.3954 11.6902 21.4467 10.905 20.361C9.23545 18.0613 7.83246 15.5794 6.72301 12.963C6.69301 12.897 6.69901 12.816 6.63301 12.765V12.465C6.69114 12.3654 6.77372 12.2823 6.87293 12.2235C6.97215 12.1647 7.08472 12.1322 7.20001 12.129C7.72501 12.09 8.25001 12.111 8.77501 12.102C9.30001 12.093 9.885 12.102 10.44 12.102C10.6632 12.0846 10.8859 12.1413 11.0736 12.2633C11.2612 12.3854 11.4034 12.5659 11.478 12.777C11.9994 14.0009 12.5945 15.1921 13.26 16.344C13.5168 16.8388 13.8661 17.2797 14.289 17.643C14.3907 17.7275 14.5051 17.7953 14.628 17.844C14.6848 17.8703 14.7463 17.885 14.8088 17.8872C14.8714 17.8893 14.9338 17.8789 14.9922 17.8565C15.0507 17.8341 15.1041 17.8003 15.1492 17.7569C15.1943 17.7135 15.2303 17.6615 15.255 17.604C15.4294 17.2189 15.5243 16.8026 15.534 16.38C15.6572 15.417 15.6238 14.4403 15.435 13.488C15.3938 13.2347 15.2725 13.0014 15.0889 12.8221C14.9054 12.6429 14.6692 12.5272 14.415 12.492C14.115 12.435 14.115 12.363 14.313 12.147C14.5349 11.8942 14.8386 11.7275 15.171 11.676C16.4446 11.4736 17.7416 11.4675 19.017 11.658C19.653 11.757 19.878 11.979 19.95 12.723C19.9825 13.2997 19.9775 13.8779 19.935 14.454C19.914 15.222 19.89 15.993 19.914 16.761C19.9121 16.9987 19.958 17.2344 20.049 17.454C20.199 17.778 20.514 18.018 20.949 17.652C21.5014 17.1221 21.9752 16.516 22.356 15.852C22.9688 14.8767 23.4891 13.8462 23.91 12.774C23.9576 12.6502 24.0158 12.5308 24.084 12.417C24.1305 12.3319 24.1997 12.2613 24.2839 12.2131C24.3681 12.1649 24.464 12.141 24.561 12.144C25.893 12.144 27.225 12.102 28.557 12.102C29.28 12.102 29.514 12.435 29.277 13.116C28.9526 13.9348 28.5088 14.7011 27.96 15.39C27.381 16.188 26.781 16.965 26.193 17.757C26.0563 17.9401 25.931 18.1314 25.818 18.33C25.6986 18.5122 25.6468 18.7305 25.6714 18.9469C25.6961 19.1633 25.7957 19.3643 25.953 19.515Z" fill="white"/>
</svg>
