<svg width="24" height="22" viewBox="0 0 24 22" fill="none" xmlns="http://www.w3.org/2000/svg">
<path d="M23.2668 8.406C22.3644 6.92733 21.2261 5.6065 19.8971 4.49594L22.696 1.69517C22.8781 1.50652 22.9789 1.25385 22.9766 0.991581C22.9743 0.729313 22.8692 0.478432 22.6839 0.292973C22.4985 0.107515 22.2478 0.00231685 21.9857 3.78129e-05C21.7236 -0.00224123 21.4711 0.0985807 21.2826 0.280788L18.2387 3.33062C16.3518 2.20914 14.1946 1.62462 12 1.64016C5.81129 1.64016 2.2846 5.87932 0.733174 8.406C0.25388 9.18172 0 10.0757 0 10.9877C0 11.8997 0.25388 12.7937 0.733174 13.5694C1.6356 15.0481 2.77391 16.3689 4.10293 17.4795L1.30396 20.2802C1.20849 20.3725 1.13233 20.4829 1.07994 20.6049C1.02755 20.727 0.999979 20.8582 0.998825 20.991C0.997672 21.1239 1.02296 21.2556 1.07323 21.3785C1.12349 21.5014 1.19771 21.6131 1.29157 21.707C1.38543 21.8009 1.49704 21.8752 1.61989 21.9255C1.74274 21.9758 1.87437 22.0011 2.0071 22C2.13983 21.9988 2.271 21.9712 2.39296 21.9188C2.51492 21.8664 2.62523 21.7902 2.71744 21.6946L5.76831 18.6418C7.65288 19.7631 9.80748 20.3486 12 20.3353C18.1887 20.3353 21.7154 16.0961 23.2668 13.5694C23.7461 12.7937 24 11.8997 24 10.9877C24 10.0757 23.7461 9.18172 23.2668 8.406V8.406ZM2.43654 12.5221C2.15178 12.061 2.00095 11.5297 2.00095 10.9877C2.00095 10.4457 2.15178 9.91437 2.43654 9.45329C3.77005 7.2867 6.78393 3.64071 12 3.64071C13.6597 3.6314 15.296 4.03165 16.7642 4.80602L14.752 6.81957C13.7923 6.182 12.6417 5.89632 11.4954 6.011C10.3492 6.12568 9.27787 6.63366 8.46331 7.44875C7.64875 8.26383 7.1411 9.33582 7.02649 10.4828C6.91188 11.6298 7.19738 12.7811 7.83454 13.7415L5.5254 16.0521C4.30096 15.0615 3.25608 13.8674 2.43654 12.5221V12.5221ZM14.9989 10.9877C14.9989 11.7836 14.6829 12.5468 14.1205 13.1096C13.5581 13.6724 12.7954 13.9885 12 13.9885C11.5547 13.9868 11.1155 13.8842 10.7155 13.6884L14.699 9.70236C14.8946 10.1027 14.9972 10.5421 14.9989 10.9877V10.9877ZM9.00111 10.9877C9.00111 10.1918 9.31706 9.42857 9.87946 8.86581C10.4419 8.30305 11.2046 7.98689 12 7.98689C12.4453 7.98862 12.8845 8.09121 13.2845 8.28697L9.301 12.2731C9.10536 11.8728 9.00284 11.4333 9.00111 10.9877ZM21.5635 12.5221C20.2299 14.6887 17.2161 18.3347 12 18.3347C10.3403 18.344 8.70398 17.9438 7.23576 17.1694L9.24802 15.1558C10.2077 15.7934 11.3583 16.0791 12.5046 15.9644C13.6508 15.8497 14.7221 15.3418 15.5367 14.5267C16.3512 13.7116 16.8589 12.6396 16.9735 11.4926C17.0881 10.3456 16.8026 9.19429 16.1655 8.23396L18.4746 5.92333C19.699 6.91388 20.7439 8.10797 21.5635 9.45329C21.8482 9.91437 21.999 10.4457 21.999 10.9877C21.999 11.5297 21.8482 12.061 21.5635 12.5221V12.5221Z" fill="#DFDFDF"/>
</svg>
