<svg width="220" height="48" viewBox="0 0 220 48" fill="none" xmlns="http://www.w3.org/2000/svg">
<g clip-path="url(#clip0_311_93)">
<mask id="mask0_311_93" style="mask-type:luminance" maskUnits="userSpaceOnUse" x="0" y="0" width="220" height="48">
<path d="M220 0H0V48H220V0Z" fill="white"/>
</mask>
<g mask="url(#mask0_311_93)">
<path fill-rule="evenodd" clip-rule="evenodd" d="M145.84 21.5938C146.315 21.5938 146.779 21.7346 147.173 21.9983C147.567 22.262 147.875 22.6367 148.056 23.0753C148.238 23.5138 148.285 23.9964 148.193 24.4619C148.1 24.9275 147.871 25.3551 147.536 25.6908C147.201 26.0264 146.774 26.2551 146.308 26.3476C145.843 26.4402 145.361 26.3927 144.923 26.2111C144.485 26.0295 144.11 25.7218 143.847 25.3271C143.583 24.9324 143.442 24.4684 143.442 23.9937C143.444 23.3576 143.697 22.748 144.146 22.2983C144.596 21.8484 145.205 21.5952 145.84 21.5938Z" fill="#F67001"/>
<path fill-rule="evenodd" clip-rule="evenodd" d="M19.0019 46.8385L39.9564 29.2513C40.8034 28.5413 40.7759 27.6 39.1755 27.1651C29.4022 24.5449 14.3051 23.6532 0.797403 27.3137C-0.368569 27.6275 -0.390638 28.6955 1.68831 28.5028C9.73464 27.7596 14.976 27.6275 24.2708 30.2642C24.6503 30.3688 24.6337 30.8147 24.0727 30.7212C17.2034 29.2844 12.4076 29.0698 3.83334 31.2716C2.78836 31.5468 2.34833 32.6203 4.75177 32.3725C13.2986 31.5689 16.4664 32.3009 22.1478 34.4587C22.6647 34.6568 22.4008 35.0477 21.9278 34.9321C17.0602 33.6703 11.9648 33.5685 7.05068 34.6348C5.8902 34.8935 5.52168 35.978 7.97462 35.8734C11.7256 35.7137 21.6088 37.3761 18.9743 41.0641L17.1045 44.5761C14.932 48.7156 16.9064 48.5944 19.0019 46.8385Z" fill="#002B45"/>
<path fill-rule="evenodd" clip-rule="evenodd" d="M21.5102 1.14991L0.555641 18.7646C-0.291338 19.4747 -0.263747 20.416 1.33671 20.8564C11.11 23.471 26.2071 24.3628 39.7147 20.7023C40.8807 20.3885 40.9081 19.3206 38.8237 19.5133C30.7774 20.2564 25.5416 20.3886 16.2412 17.7519C15.8617 17.6473 15.8783 17.2014 16.4393 17.3004C23.3087 18.7316 28.1101 18.9518 36.6788 16.7169C37.7293 16.4417 38.1637 15.3683 35.7602 15.616C27.2135 16.4196 24.0457 15.6875 18.3642 13.5297C17.8472 13.337 18.1112 12.9408 18.5842 13.0619C23.4541 14.3222 28.5514 14.4221 33.4669 13.3537C34.6218 13.1005 34.9904 12.0106 32.5374 12.1151C28.7865 12.2748 18.9032 10.6123 21.5377 6.92422L23.4076 3.41236C25.5801 -0.721585 23.6057 -0.578525 21.5102 1.14991Z" fill="#F67001"/>
<path fill-rule="evenodd" clip-rule="evenodd" d="M175.451 23.6091C175.451 24.5411 174.813 25.2237 173.537 25.6567C172.557 25.9651 171.534 26.1138 170.507 26.0972H163.83V29.6036H161.63V18.9577C161.63 18.5999 161.746 18.4072 162.153 18.4072H170.507C173.807 18.4072 175.457 19.2421 175.457 20.9118V23.6091H175.451ZM173.251 22.954V21.5117C173.251 20.8952 172.335 20.587 170.501 20.587H163.83V23.8898H170.507C171.04 23.8955 171.573 23.8457 172.096 23.7411C172.866 23.5925 173.251 23.3283 173.251 22.954Z" fill="#002B45"/>
<path fill-rule="evenodd" clip-rule="evenodd" d="M190.34 27.1157C190.34 28.024 189.702 28.7065 188.426 29.1524C187.443 29.4666 186.416 29.619 185.385 29.6038H178.719V27.4019H185.385C187.218 27.4019 188.135 27.0937 188.135 26.4771V26.0974H181.469C180.443 26.1251 179.421 25.9705 178.449 25.6404C177.162 25.178 176.519 24.4093 176.519 23.334V18.3799H178.719V22.8881C178.719 23.5541 179.632 23.8899 181.469 23.8899H188.14V18.3854H190.34V27.1157Z" fill="#002B45"/>
<path fill-rule="evenodd" clip-rule="evenodd" d="M198.336 20.5813H193.617V29.6033H191.417V19.1061C191.412 19.0164 191.425 18.9265 191.454 18.8417C191.484 18.7569 191.53 18.6788 191.59 18.6117C191.649 18.5448 191.722 18.4902 191.802 18.4513C191.883 18.4124 191.971 18.3899 192.061 18.385H204.474C204.564 18.3828 204.653 18.3982 204.736 18.4305C204.82 18.4628 204.896 18.5112 204.961 18.5731C205.026 18.6349 205.078 18.7091 205.115 18.791C205.15 18.8731 205.17 18.9613 205.172 19.051V29.6033H202.972V20.5813H198.336Z" fill="#002B45"/>
<path fill-rule="evenodd" clip-rule="evenodd" d="M213.186 20.5814H208.467V29.6036H206.267V19.1062C206.262 19.0166 206.274 18.9267 206.303 18.8419C206.333 18.7571 206.379 18.6789 206.438 18.612C206.499 18.545 206.57 18.4905 206.652 18.4515C206.733 18.4126 206.82 18.39 206.91 18.3851H219.323C219.413 18.3822 219.502 18.3969 219.586 18.4285C219.67 18.4602 219.747 18.508 219.812 18.5694C219.877 18.6307 219.93 18.7045 219.967 18.7861C220.004 18.8679 220.024 18.956 220.027 19.0457V29.6036H217.827V20.5814H213.186Z" fill="#002B45"/>
<path fill-rule="evenodd" clip-rule="evenodd" d="M160.563 18.3848H151.098C150.952 18.3848 150.812 18.4428 150.709 18.546C150.606 18.6492 150.548 18.7892 150.548 18.9352V29.6031H152.748V20.5865H160.563V18.3848Z" fill="#002B45"/>
<path fill-rule="evenodd" clip-rule="evenodd" d="M66.6856 29.6525H64.7167V22.1773L58.2764 29.3333C58.1887 29.432 58.0811 29.5109 57.9607 29.565C57.8403 29.6191 57.7098 29.647 57.5779 29.647C57.4459 29.647 57.3154 29.6191 57.1951 29.565C57.0747 29.5109 56.9671 29.432 56.8794 29.3333L50.5325 22.2103V29.6525H48.5691V19.5517C48.5539 19.2407 48.6408 18.9332 48.8165 18.6764C48.8881 18.5754 48.983 18.4931 49.0931 18.4366C49.2032 18.3801 49.3254 18.3508 49.4491 18.3516C49.6049 18.3624 49.7564 18.4063 49.8939 18.4803C50.0314 18.5544 50.1517 18.6568 50.2465 18.781L57.5779 27.0378L65.0248 18.781C65.1144 18.6553 65.2311 18.5516 65.3663 18.4772C65.5016 18.4029 65.6517 18.3599 65.8057 18.3516C65.9284 18.3517 66.0494 18.3814 66.1585 18.4378C66.2676 18.4943 66.3615 18.5762 66.4326 18.6764C66.6137 18.9309 66.703 19.2397 66.6856 19.5517V29.6525Z" fill="#002B45"/>
<path fill-rule="evenodd" clip-rule="evenodd" d="M81.574 27.1153C81.574 28.0474 80.9416 28.73 79.6766 29.163C78.6922 29.4768 77.6627 29.6256 76.6297 29.6034H72.7028C71.676 29.617 70.6546 29.453 69.6834 29.1189C68.3964 28.6731 67.7529 28.0181 67.7529 27.1153V20.8896C67.7529 19.9282 68.3799 19.2345 69.6338 18.8088C70.6281 18.5062 71.6639 18.3631 72.7028 18.385H76.6297C79.9296 18.385 81.5796 19.2199 81.5796 20.8896V27.1153H81.574ZM79.3741 26.5649V21.4676C79.3741 20.8786 78.4556 20.5813 76.6242 20.5868H72.6973C70.9043 20.5868 70.0078 20.8804 70.0078 21.4676V26.5538C70.0078 27.1227 70.9043 27.4052 72.6973 27.4016H76.6242C78.4575 27.4016 79.3741 27.119 79.3741 26.5538V26.5649Z" fill="#002B45"/>
<path fill-rule="evenodd" clip-rule="evenodd" d="M96.4741 29.6033H87.5912C86.5699 29.6253 85.5511 29.4879 84.5721 29.1959C83.2851 28.7776 82.6416 28.084 82.6416 27.1153V20.8895C82.6416 19.9813 83.2797 19.2987 84.5557 18.8528C85.5342 18.5271 86.5606 18.3689 87.5912 18.3849H96.4741V20.5867H87.5912C85.7982 20.5867 84.9021 20.983 84.9021 21.7867V26.4326C84.9021 27.0767 85.7982 27.3959 87.5912 27.4015H96.4741V29.6033Z" fill="#002B45"/>
<path fill-rule="evenodd" clip-rule="evenodd" d="M111.356 20.5925H105.543V29.6035H103.343V20.5925H97.5352V18.3906H111.356V20.5925Z" fill="#002B45"/>
<path fill-rule="evenodd" clip-rule="evenodd" d="M141.137 29.6039H138.937V26.0973H129.516V29.6039H127.316V21.9358C127.319 21.3425 127.494 20.7628 127.821 20.2674C128.146 19.7719 128.609 19.382 129.153 19.1451C130.114 18.6315 131.188 18.37 132.277 18.3854H136.039C137.195 18.3791 138.333 18.6771 139.339 19.2497C140.516 19.9267 141.11 20.8184 141.115 21.9358V29.6039H141.137ZM138.937 22.4093C138.918 22.1386 138.828 21.8777 138.677 21.6527C138.525 21.4276 138.317 21.2463 138.074 21.1267C137.461 20.7548 136.755 20.564 136.039 20.5762H132.277C131.619 20.592 130.979 20.7964 130.434 21.1653C129.818 21.5616 129.516 21.9744 129.516 22.3983V23.8844H138.937V22.4093Z" fill="#002B45"/>
<path fill-rule="evenodd" clip-rule="evenodd" d="M126.244 23.6091C126.244 24.5411 125.606 25.2237 124.33 25.6567C123.348 25.9648 122.323 26.1134 121.294 26.0972H114.623V29.6036H112.423V18.9577C112.423 18.5999 112.539 18.4072 112.946 18.4072H121.294C124.594 18.4072 126.244 19.2421 126.244 20.9118V23.6091ZM124.044 22.954V21.5117C124.044 20.8952 123.128 20.587 121.294 20.587H114.623V23.8898H121.294C121.83 23.8952 122.364 23.8454 122.889 23.7411C123.659 23.5925 124.044 23.3283 124.044 22.954Z" fill="#002B45"/>
</g>
</g>
<defs>
<clipPath id="clip0_311_93">
<rect width="220" height="48" fill="white"/>
</clipPath>
</defs>
</svg>
