<svg width="24" height="22" viewBox="0 0 24 22" fill="none" xmlns="http://www.w3.org/2000/svg">
<path d="M12 1.5C18.1896 1.5 21.7161 5.80812 23.2666 8.37598C23.7459 9.16433 24 10.0731 24 11C24 11.9267 23.7458 12.8348 23.2666 13.623C21.7162 16.1909 18.1897 20.5 12 20.5C5.8103 20.5 2.28383 16.1909 0.733398 13.623C0.25424 12.8348 3.97928e-05 11.9267 0 11C0 10.0731 0.254102 9.16433 0.733398 8.37598C2.28387 5.80813 5.81041 1.50002 12 1.5ZM12 3.5332C6.78294 3.53323 3.76901 7.23856 2.4375 9.44043C2.15276 9.909 2.00195 10.4492 2.00195 11C2.00199 11.5508 2.15278 12.091 2.4375 12.5596C3.76909 14.7615 6.78314 18.4668 12 18.4668C17.2169 18.4668 20.2309 14.7615 21.5625 12.5596C21.8472 12.091 21.998 11.5508 21.998 11C21.998 10.4492 21.8473 9.90902 21.5625 9.44043C20.231 7.23449 17.2171 3.5332 12 3.5332ZM12.001 5.91699C13.3259 5.91874 14.5963 6.45448 15.5332 7.40723C16.47 8.35996 16.9973 9.65171 16.999 10.999C16.999 12.0043 16.7054 12.9874 16.1562 13.8232C15.607 14.6591 14.8264 15.3106 13.9131 15.6953C12.9998 16.08 11.9949 16.1805 11.0254 15.9844C10.0559 15.7882 9.16481 15.3046 8.46582 14.5938C7.76692 13.883 7.29149 12.9771 7.09863 11.9912C6.90579 11.0053 7.00459 9.98339 7.38281 9.05469C7.7611 8.12595 8.40173 7.33194 9.22363 6.77344C10.0456 6.21493 11.0124 5.91699 12.001 5.91699ZM13.1484 8.18164C12.6005 7.95082 11.9968 7.89112 11.415 8.00879C10.8335 8.12651 10.2992 8.41644 9.87988 8.84277C9.46055 9.26921 9.17532 9.81283 9.05957 10.4043C8.94386 10.9959 9.00251 11.6097 9.22949 12.167C9.45644 12.724 9.84103 13.2001 10.334 13.5352C10.8272 13.8703 11.4078 14.0488 12.001 14.0488C12.7961 14.0487 13.5588 13.728 14.1211 13.1562C14.6835 12.5843 14.999 11.8079 14.999 10.999C14.9989 10.3962 14.8234 9.80696 14.4941 9.30566C14.1646 8.80419 13.6963 8.41247 13.1484 8.18164Z" fill="#DFDFDF"/>
</svg>
